<svg width="1123" height="1161" viewBox="0 0 1123 1161" fill="none" xmlns="http://www.w3.org/2000/svg">
<g clip-path="url(#clip0_6002_168)">
<path d="M311.552 727.87L573.833 274.769L837.978 727.87H311.552Z" stroke="white" stroke-width="22"/>
<path d="M290.652 707.401L156.602 334.532L545.027 269.108L290.652 707.401Z" stroke="white" stroke-width="22"/>
<path d="M857.007 705.959L992.043 334.145L604.03 269.084L857.007 705.959Z" stroke="white" stroke-width="22"/>
<path d="M830.474 755.581L576.689 1080.64L314.972 753.872L830.474 755.581Z" stroke="white" stroke-width="22"/>
<path d="M556.004 235.784L195.783 299.426L542.851 77.9483L556.004 235.784Z" stroke="white" stroke-width="22"/>
<path d="M580.239 158.219L580.238 158.21L572.01 80.6339L947 295.812L588.364 235.411L580.239 158.219Z" stroke="white" stroke-width="22"/>
<path d="M266.957 735.32L108.118 803.149L139.805 379.387L266.957 735.32Z" stroke="white" stroke-width="22"/>
<path d="M121.875 828.352L280.472 760.746L521.981 1059.23L121.875 828.352Z" stroke="white" stroke-width="22"/>
<path d="M878.893 736.227L1014.48 809.723L1007.27 385.337L878.893 736.227Z" stroke="white" stroke-width="22"/>
<path d="M863.718 764.471L996.262 836.424L633.975 1057.33L863.718 764.471Z" stroke="white" stroke-width="22"/>
<path d="M616.413 837.74C616.147 838.625 615.899 839.722 615.669 841.031C615.397 842.339 615.163 843.965 614.966 845.909C614.77 847.853 614.611 850.157 614.489 852.822C614.367 855.529 614.281 858.681 614.231 862.277L613.657 903.597C613.607 907.193 613.821 910.053 614.299 912.176C614.778 914.298 615.369 915.936 616.072 917.088C616.733 918.24 617.441 919.075 618.196 919.594C618.908 920.112 619.515 920.586 620.017 921.016L620.013 921.27L600.426 928.298L600.43 928.044C600.696 927.159 600.965 926.062 601.237 924.754C601.467 923.445 601.681 921.798 601.877 919.811C602.074 917.867 602.233 915.542 602.355 912.835C602.477 910.17 602.563 907.04 602.613 903.443L603.187 862.124C603.237 858.527 603.239 855.374 603.192 852.665C603.144 849.998 603.049 847.69 602.907 845.741C602.765 843.793 602.597 842.161 602.404 840.846C602.168 839.531 601.929 838.427 601.688 837.535L601.691 837.281L616.417 837.486L616.413 837.74ZM531.222 928.86L531.226 928.606C531.45 927.72 531.656 926.623 531.843 925.313C532.031 924.004 532.201 922.377 532.355 920.432C532.467 918.487 532.584 916.161 532.706 913.454C532.786 910.789 532.85 907.658 532.9 904.061L533.444 864.963C529.592 864.994 526.459 865.078 524.045 865.214C521.588 865.349 519.638 865.576 518.195 865.894L517.941 865.891L518.067 856.814L518.321 856.818C519.756 857.092 521.699 857.352 524.151 857.597C526.56 857.842 529.689 858.034 533.538 858.172C533.539 855.083 533.513 852.374 533.461 850.045C533.408 847.717 533.31 845.684 533.164 843.947C533.019 842.252 532.849 840.789 532.654 839.559C532.459 838.372 532.24 837.374 531.997 836.567L532.001 836.313L547.234 836.524L547.23 836.778C546.965 837.579 546.719 838.57 546.491 839.752C546.262 840.976 546.072 842.433 545.922 844.124C545.729 845.857 545.573 847.886 545.457 850.212C545.297 852.537 545.175 855.244 545.09 858.333L588.63 858.938L588.591 861.794L532.555 928.878L531.222 928.86ZM544.995 865.124L544.441 904.983L577.111 865.57L544.995 865.124Z" fill="white"/>
<path d="M457.269 591.87H449.953V548.532H461.361L474.443 575.75L487.525 548.532H498.871V591.87H491.555V558.018L476.427 588.088H472.335L457.269 558.018V591.87ZM510.924 548.532H518.24V591.87H510.924V548.532ZM562.726 548.532H570.042V591.87H562.106L537.554 560.25V591.87H530.238V548.532H537.554L562.726 580.896V548.532ZM612.074 570.79H619.39V585.608C615.298 590.113 609.449 592.366 601.844 592.366C595.437 592.366 590.064 590.258 585.724 586.042C581.425 581.826 579.276 576.494 579.276 570.046C579.276 563.598 581.467 558.225 585.848 553.926C590.271 549.627 595.603 547.478 601.844 547.478C608.085 547.478 613.273 549.297 617.406 552.934L613.5 558.514C611.805 557.067 610.09 556.075 608.354 555.538C606.659 554.959 604.675 554.67 602.402 554.67C598.021 554.67 594.342 556.096 591.366 558.948C588.39 561.759 586.902 565.479 586.902 570.108C586.902 574.696 588.349 578.395 591.242 581.206C594.135 583.975 597.628 585.36 601.72 585.36C605.853 585.36 609.305 584.471 612.074 582.694V570.79ZM628.99 591.87V548.532H636.306V584.926H656.084V591.87H628.99ZM694.549 548.532V555.414H671.423V566.884H692.193V573.394H671.423V584.988H695.293V591.87H664.107V548.532H694.549Z" fill="white"/>
<path d="M299.438 387.063C301.494 388.061 303.213 389.412 304.596 391.118C305.998 392.786 307.166 394.693 308.1 396.84C309.014 398.93 309.751 401.192 310.309 403.627C310.83 406.043 311.238 408.499 311.533 410.994C314.428 409.388 317.372 407.877 320.365 406.46C323.338 404.986 326.295 403.834 329.238 403.004C332.143 402.156 335.024 401.743 337.882 401.766C340.721 401.732 343.472 402.362 346.137 403.655C349.145 405.115 351.762 407.137 353.988 409.722C356.176 412.289 357.801 415.242 358.863 418.579C359.925 421.916 360.299 425.555 359.986 429.496C359.674 433.436 358.492 437.519 356.441 441.745C354.151 446.466 351.574 450.225 348.711 453.023C345.867 455.782 342.91 457.757 339.839 458.948C336.73 460.12 333.632 460.592 330.544 460.364C327.456 460.136 324.542 459.357 321.801 458.027C319.174 456.752 316.987 455.103 315.241 453.08C313.513 451.018 312.113 448.669 311.041 446.032C309.93 443.377 309.129 440.472 308.637 437.317C308.126 434.105 307.812 430.731 307.694 427.193C305.21 428.434 302.745 429.589 300.297 430.659C297.868 431.691 295.483 432.486 293.143 433.044C290.802 433.601 288.534 433.865 286.339 433.834C284.123 433.747 282.007 433.214 279.989 432.235C276.41 430.498 273.744 428.334 271.991 425.743C270.2 423.134 269.069 420.375 268.599 417.466C268.11 414.5 268.151 411.556 268.721 408.635C269.311 405.675 270.188 402.996 271.351 400.598C272.848 397.514 274.623 394.824 276.678 392.529C278.733 390.233 280.983 388.456 283.428 387.196C285.835 385.919 288.401 385.235 291.126 385.146C293.85 385.057 296.621 385.696 299.438 387.063ZM344.164 416.738C341.917 415.648 339.508 415.184 336.936 415.348C334.364 415.511 331.721 416.062 329.007 417.003C326.255 417.925 323.43 419.142 320.533 420.653C317.617 422.107 314.682 423.599 311.729 425.129C312.11 428.513 312.712 431.439 313.537 433.909C314.323 436.36 315.313 438.487 316.508 440.289C317.703 442.092 319.113 443.646 320.737 444.952C322.38 446.219 324.248 447.361 326.342 448.377C329.007 449.67 331.618 450.396 334.175 450.555C336.732 450.714 339.151 450.382 341.431 449.56C343.673 448.72 345.73 447.437 347.603 445.711C349.437 443.967 350.973 441.867 352.212 439.411C353.229 437.411 353.877 435.35 354.154 433.227C354.394 431.086 354.208 428.996 353.597 426.96C352.986 424.923 351.904 423.034 350.35 421.292C348.815 419.512 346.753 417.994 344.164 416.738ZM282.052 419.548C283.766 420.38 285.597 420.774 287.546 420.732C289.475 420.634 291.515 420.259 293.664 419.609C295.776 418.941 297.999 418.044 300.332 416.918C302.628 415.774 304.988 414.544 307.414 413.228C307.22 411.206 306.876 409.298 306.381 407.506C305.887 405.714 305.186 404.057 304.278 402.534C303.389 400.974 302.255 399.578 300.878 398.345C299.481 397.056 297.812 395.94 295.87 394.998C293.281 393.741 290.927 393.116 288.807 393.123C286.668 393.072 284.78 393.426 283.142 394.184C281.504 394.941 280.107 395.98 278.949 397.3C277.81 398.581 276.908 399.907 276.242 401.278C275.467 402.877 274.957 404.558 274.713 406.321C274.487 408.046 274.583 409.739 275 411.399C275.436 413.022 276.22 414.555 277.354 415.999C278.507 417.405 280.073 418.588 282.052 419.548Z" fill="white"/>
<path d="M783.32 430.671C784.332 430.828 785.761 431.164 787.606 431.677C789.488 432.169 791.676 432.732 794.172 433.364C796.704 433.975 799.483 434.593 802.508 435.217C805.534 435.841 808.725 436.372 812.082 436.809C815.439 437.245 818.902 437.525 822.471 437.649C826.097 437.788 829.719 437.662 833.338 437.271C836.956 436.88 840.54 436.168 844.088 435.136C847.657 434.141 851.081 432.718 854.361 430.866C857.861 428.889 860.644 426.759 862.708 424.476C864.829 422.208 866.313 419.888 867.16 417.514C868.043 415.12 868.339 412.718 868.047 410.307C867.775 407.933 867.005 405.622 865.736 403.374C864.154 400.574 862.239 398.302 859.991 396.558C857.8 394.831 855.6 393.473 853.39 392.486C851.201 391.535 849.178 390.879 847.322 390.518C845.486 390.194 844.133 390.035 843.262 390.041L843.156 389.08L856.499 386.502C858.486 387.956 860.272 389.353 861.855 390.694C863.497 392.052 865.009 393.482 866.392 394.985C867.796 396.525 869.111 398.164 870.335 399.902C871.618 401.656 872.894 403.657 874.163 405.905C875.016 407.416 875.756 409.112 876.381 410.995C877.007 412.877 877.419 414.855 877.619 416.93C877.818 419.004 877.744 421.111 877.398 423.251C877.109 425.407 876.439 427.534 875.389 429.634C874.397 431.749 872.982 433.763 871.146 435.675C869.331 437.624 867.004 439.399 864.167 441.001C861.145 442.708 857.845 443.964 854.267 444.77C850.725 445.555 847.054 446.024 843.253 446.178C839.488 446.312 835.655 446.192 831.751 445.821C827.848 445.449 824.042 444.95 820.335 444.322C816.627 443.695 813.077 443.002 809.685 442.245C806.329 441.467 803.273 440.787 800.515 440.206L812.532 461.486C813.302 462.849 814.069 464.166 814.834 465.434C815.657 466.719 816.436 467.883 817.171 468.926C817.942 469.949 818.668 470.803 819.347 471.488C820.046 472.211 820.687 472.7 821.268 472.955L821.393 473.176L809.62 479.824L782.215 431.295L783.32 430.671Z" fill="white"/>
</g>
<defs>
<clipPath id="clip0_6002_168">
<rect width="1123" height="1161" fill="white"/>
</clipPath>
</defs>
</svg>
