<svg width="1148" height="1161" viewBox="0 0 1148 1161" fill="none" xmlns="http://www.w3.org/2000/svg">
<path d="M311.552 727.87L573.833 274.769L837.978 727.87H311.552Z" stroke="white" stroke-width="22"/>
<path d="M290.652 707.401L156.602 334.532L545.027 269.108L290.652 707.401Z" stroke="white" stroke-width="22"/>
<path d="M857.007 705.959L992.043 334.145L604.03 269.084L857.007 705.959Z" stroke="white" stroke-width="22"/>
<path d="M830.474 755.581L576.689 1080.64L314.972 753.872L830.474 755.581Z" stroke="white" stroke-width="22"/>
<path d="M556.004 235.784L195.783 299.426L542.851 77.9483L556.004 235.784Z" stroke="white" stroke-width="22"/>
<path d="M580.239 158.219L580.238 158.21L572.01 80.6339L947 295.812L588.364 235.411L580.239 158.219Z" stroke="white" stroke-width="22"/>
<path d="M266.957 735.32L108.118 803.149L139.805 379.387L266.957 735.32Z" stroke="white" stroke-width="22"/>
<path d="M121.875 828.352L280.472 760.746L521.981 1059.23L121.875 828.352Z" stroke="white" stroke-width="22"/>
<path d="M878.893 736.227L1014.48 809.723L1007.27 385.337L878.893 736.227Z" stroke="white" stroke-width="22"/>
<path d="M863.718 764.471L996.262 836.424L633.975 1057.33L863.718 764.471Z" stroke="white" stroke-width="22"/>
<path d="M616.413 837.74C616.147 838.625 615.899 839.722 615.669 841.031C615.397 842.339 615.163 843.965 614.966 845.909C614.77 847.853 614.611 850.157 614.489 852.822C614.367 855.529 614.281 858.681 614.231 862.277L613.657 903.597C613.607 907.193 613.821 910.053 614.299 912.176C614.778 914.298 615.369 915.936 616.072 917.088C616.733 918.24 617.441 919.075 618.196 919.594C618.908 920.112 619.515 920.586 620.017 921.016L620.013 921.27L600.426 928.298L600.43 928.044C600.696 927.159 600.965 926.062 601.237 924.754C601.467 923.445 601.681 921.798 601.877 919.811C602.074 917.867 602.233 915.542 602.355 912.835C602.477 910.17 602.563 907.04 602.613 903.443L603.187 862.124C603.237 858.527 603.239 855.374 603.192 852.665C603.144 849.998 603.049 847.69 602.907 845.741C602.765 843.793 602.597 842.161 602.404 840.846C602.168 839.531 601.929 838.427 601.688 837.535L601.691 837.281L616.417 837.486L616.413 837.74ZM531.222 928.86L531.226 928.606C531.45 927.72 531.656 926.623 531.843 925.313C532.031 924.004 532.201 922.377 532.355 920.432C532.467 918.487 532.584 916.161 532.706 913.454C532.786 910.789 532.85 907.658 532.9 904.061L533.444 864.963C529.592 864.994 526.459 865.078 524.045 865.214C521.588 865.349 519.638 865.576 518.195 865.894L517.941 865.891L518.067 856.814L518.321 856.818C519.756 857.092 521.699 857.352 524.151 857.597C526.56 857.842 529.689 858.034 533.538 858.172C533.539 855.083 533.513 852.374 533.461 850.045C533.408 847.717 533.31 845.684 533.164 843.947C533.019 842.252 532.849 840.789 532.654 839.559C532.459 838.372 532.24 837.374 531.997 836.567L532.001 836.313L547.234 836.524L547.23 836.778C546.965 837.579 546.719 838.57 546.491 839.752C546.262 840.976 546.072 842.433 545.922 844.124C545.729 845.857 545.573 847.886 545.457 850.212C545.297 852.537 545.175 855.244 545.09 858.333L588.63 858.938L588.591 861.794L532.555 928.878L531.222 928.86ZM544.995 865.124L544.441 904.983L577.111 865.57L544.995 865.124Z" fill="white"/>
<path d="M458.288 594.749C458.51 594.426 458.763 593.952 459.045 593.326C459.328 592.68 459.55 591.873 459.711 590.904C459.933 589.492 460.175 587.907 460.438 586.151C460.72 584.375 461.003 582.519 461.286 580.581C461.588 578.644 461.881 576.666 462.163 574.647C462.466 572.609 462.749 570.611 463.011 568.653C463.294 566.675 463.556 564.778 463.798 562.962C464.061 561.125 464.293 559.45 464.495 557.937C464.696 556.423 464.858 555.111 464.979 554.001C465.12 552.871 465.221 552.023 465.282 551.458H469.126L488.168 587.06L507.059 551.458H509.935L514.9 587.423C515.041 588.553 515.192 589.522 515.354 590.329C515.515 591.136 515.677 591.833 515.838 592.418C516 592.983 516.151 593.457 516.292 593.841C516.454 594.204 516.605 594.507 516.746 594.749V594.87H509.118V594.749C509.218 594.527 509.309 594.164 509.39 593.659C509.491 593.155 509.541 592.549 509.541 591.843C509.541 591.58 509.531 591.318 509.511 591.056C509.491 590.773 509.461 590.47 509.42 590.147L505.576 561.146L487.714 594.749L485.625 594.507L467.643 560.843C466.937 565.626 466.321 570.046 465.796 574.103C465.574 575.838 465.352 577.574 465.13 579.31C464.908 581.025 464.706 582.63 464.525 584.123C464.363 585.617 464.232 586.938 464.131 588.089C464.03 589.219 463.98 590.057 463.98 590.602C463.98 591.288 464 591.893 464.04 592.418C464.081 592.943 464.121 593.387 464.161 593.75C464.222 594.174 464.283 594.547 464.343 594.87H458.288V594.749ZM523.861 594.749C523.982 594.325 524.093 593.8 524.194 593.175C524.295 592.549 524.385 591.772 524.466 590.844C524.547 589.915 524.607 588.815 524.648 587.544C524.688 586.252 524.708 584.749 524.708 583.033V563.325C524.708 561.61 524.688 560.116 524.648 558.845C524.607 557.553 524.547 556.443 524.466 555.515C524.385 554.566 524.295 553.779 524.194 553.153C524.093 552.528 523.982 552.003 523.861 551.579V551.458H531.096V551.579C530.975 552.003 530.854 552.528 530.733 553.153C530.632 553.779 530.541 554.566 530.46 555.515C530.4 556.443 530.339 557.553 530.279 558.845C530.238 560.116 530.218 561.61 530.218 563.325V583.033C530.218 584.749 530.238 586.252 530.279 587.544C530.339 588.815 530.4 589.915 530.46 590.844C530.541 591.772 530.632 592.549 530.733 593.175C530.854 593.8 530.975 594.325 531.096 594.749V594.87H523.861V594.749ZM541.752 551.458L572.934 584.638V563.325C572.934 561.61 572.914 560.116 572.873 558.845C572.833 557.553 572.773 556.443 572.692 555.515C572.611 554.566 572.51 553.779 572.389 553.153C572.288 552.528 572.177 552.003 572.056 551.579V551.458H577.445V551.579C577.324 552.003 577.213 552.528 577.112 553.153C577.011 553.779 576.92 554.566 576.839 555.515C576.759 556.443 576.698 557.553 576.658 558.845C576.617 560.116 576.597 561.61 576.597 563.325V595.476H575.537L544.356 562.326V583.033C544.356 584.749 544.376 586.252 544.416 587.544C544.457 588.815 544.517 589.915 544.598 590.844C544.679 591.772 544.77 592.549 544.87 593.175C544.971 593.8 545.082 594.325 545.203 594.749V594.87H539.815V594.749C539.936 594.325 540.047 593.8 540.148 593.175C540.269 592.549 540.37 591.772 540.451 590.844C540.531 589.915 540.592 588.815 540.632 587.544C540.673 586.252 540.693 584.749 540.693 583.033V563.325C540.693 561.61 540.673 560.116 540.632 558.845C540.592 557.553 540.531 556.443 540.451 555.515C540.37 554.566 540.269 553.779 540.148 553.153C540.047 552.528 539.936 552.003 539.815 551.579V551.458H541.752ZM624.096 589.784C624.096 590.006 624.066 590.238 624.005 590.48C623.965 590.723 623.854 590.924 623.672 591.086C622.764 591.772 621.775 592.408 620.705 592.993C619.656 593.558 618.516 594.053 617.285 594.477C616.053 594.9 614.721 595.223 613.288 595.445C611.876 595.688 610.352 595.809 608.717 595.809C605.044 595.809 601.694 595.274 598.666 594.204C595.639 593.114 593.036 591.58 590.856 589.603C588.696 587.625 587.021 585.253 585.83 582.488C584.64 579.703 584.044 576.615 584.044 573.225C584.044 571.307 584.286 569.42 584.771 567.563C585.275 565.707 586.002 563.941 586.951 562.266C587.899 560.59 589.07 559.057 590.462 557.664C591.855 556.251 593.439 555.03 595.215 554.001C597.011 552.972 598.979 552.174 601.119 551.609C603.278 551.024 605.609 550.731 608.112 550.731C609.08 550.731 610.069 550.782 611.078 550.883C612.088 550.964 613.087 551.095 614.076 551.276C615.064 551.438 616.013 551.64 616.921 551.882C617.85 552.124 618.728 552.396 619.555 552.699L621.614 558.3L621.371 558.421C620.584 557.715 619.676 557.059 618.647 556.453C617.618 555.848 616.518 555.323 615.347 554.879C614.176 554.435 612.945 554.092 611.654 553.85C610.382 553.587 609.091 553.456 607.779 553.456C605.236 553.456 602.905 553.86 600.786 554.667C598.666 555.454 596.84 556.604 595.306 558.118C593.792 559.632 592.612 561.489 591.764 563.688C590.916 565.888 590.493 568.391 590.493 571.196C590.493 574.284 590.896 577.15 591.703 579.794C592.511 582.438 593.712 584.729 595.306 586.666C596.9 588.604 598.888 590.127 601.27 591.237C603.672 592.327 606.467 592.872 609.656 592.872C611.068 592.872 612.33 592.761 613.44 592.539C614.55 592.317 615.488 592.045 616.255 591.722C617.022 591.379 617.597 591.015 617.981 590.632C618.384 590.228 618.586 589.865 618.586 589.542V588.361C618.586 586.949 618.566 585.728 618.526 584.698C618.485 583.669 618.425 582.781 618.344 582.034C618.263 581.267 618.173 580.611 618.072 580.066C617.971 579.521 617.85 579.017 617.708 578.553V578.432H624.974V578.553C624.853 578.977 624.732 579.481 624.611 580.066C624.51 580.632 624.419 581.308 624.338 582.095C624.258 582.882 624.197 583.81 624.157 584.88C624.116 585.929 624.096 587.15 624.096 588.543V589.784ZM638.294 592.206C640.676 592.206 642.866 592.105 644.864 591.903C646.862 591.701 648.607 591.469 650.101 591.207C651.837 590.924 653.421 590.591 654.854 590.208L653.976 595.112C653.734 595.092 653.37 595.072 652.886 595.052C652.402 595.032 651.857 595.011 651.251 594.991C650.666 594.971 650.04 594.951 649.374 594.931C648.729 594.931 648.113 594.921 647.528 594.9C646.942 594.9 646.418 594.89 645.953 594.87C645.509 594.87 645.187 594.87 644.985 594.87H631.907V594.749C632.028 594.325 632.139 593.8 632.24 593.175C632.361 592.549 632.462 591.772 632.542 590.844C632.623 589.915 632.684 588.815 632.724 587.544C632.764 586.252 632.785 584.749 632.785 583.033V563.325C632.785 561.61 632.764 560.116 632.724 558.845C632.684 557.553 632.623 556.443 632.542 555.515C632.462 554.566 632.361 553.779 632.24 553.153C632.139 552.528 632.028 552.003 631.907 551.579V551.458H639.172V551.579C639.051 552.003 638.93 552.528 638.809 553.153C638.708 553.779 638.617 554.566 638.536 555.515C638.476 556.443 638.415 557.553 638.355 558.845C638.314 560.116 638.294 561.61 638.294 563.325V592.206ZM660.424 551.458C662.947 551.458 665.45 551.448 667.932 551.428C670.435 551.408 672.725 551.387 674.804 551.367C676.883 551.327 678.659 551.276 680.132 551.216C681.606 551.155 682.605 551.075 683.129 550.974L681.646 555C680.98 554.818 680.203 554.657 679.315 554.516C678.548 554.395 677.609 554.284 676.499 554.183C675.41 554.062 674.148 554.001 672.715 554.001C672.231 554.001 671.646 554.021 670.959 554.062C670.293 554.082 669.648 554.112 669.022 554.152C668.295 554.193 667.559 554.233 666.812 554.273V570.803C668.891 570.783 670.768 570.722 672.443 570.621C674.118 570.52 675.541 570.419 676.711 570.318C678.084 570.197 679.295 570.056 680.344 569.895L679.406 574.284C678.013 574.103 676.59 573.931 675.137 573.77C673.886 573.628 672.523 573.507 671.05 573.406C669.577 573.285 668.164 573.225 666.812 573.225V592.206C669.193 592.206 671.383 592.105 673.381 591.903C675.379 591.701 677.125 591.469 678.619 591.207C680.354 590.924 681.939 590.591 683.371 590.208L682.494 595.112C682.251 595.092 681.888 595.072 681.404 595.052C680.919 595.032 680.374 595.011 679.769 594.991C679.184 594.971 678.558 594.951 677.892 594.931C677.246 594.931 676.631 594.921 676.045 594.9C675.46 594.9 674.935 594.89 674.471 594.87C674.027 594.87 673.704 594.87 673.502 594.87H660.424V594.749C660.545 594.325 660.656 593.8 660.757 593.175C660.878 592.549 660.979 591.772 661.06 590.844C661.141 589.915 661.201 588.815 661.242 587.544C661.282 586.252 661.302 584.749 661.302 583.033V563.325C661.302 561.61 661.282 560.116 661.242 558.845C661.201 557.553 661.141 556.443 661.06 555.515C660.979 554.566 660.878 553.779 660.757 553.153C660.656 552.528 660.545 552.003 660.424 551.579V551.458Z" fill="white"/>
<path d="M299.438 387.063C301.494 388.061 303.213 389.412 304.596 391.118C305.998 392.786 307.166 394.693 308.1 396.84C309.014 398.93 309.751 401.192 310.309 403.627C310.83 406.043 311.238 408.499 311.533 410.994C314.428 409.388 317.372 407.877 320.365 406.46C323.338 404.986 326.295 403.834 329.238 403.004C332.143 402.156 335.024 401.743 337.882 401.766C340.721 401.732 343.472 402.362 346.137 403.655C349.145 405.115 351.762 407.137 353.988 409.722C356.176 412.289 357.801 415.242 358.863 418.579C359.925 421.916 360.299 425.555 359.986 429.496C359.674 433.436 358.492 437.519 356.441 441.745C354.151 446.466 351.574 450.225 348.711 453.023C345.867 455.782 342.91 457.757 339.839 458.948C336.73 460.12 333.632 460.592 330.544 460.364C327.456 460.136 324.542 459.357 321.801 458.027C319.174 456.752 316.987 455.103 315.241 453.08C313.513 451.018 312.113 448.669 311.041 446.032C309.93 443.377 309.129 440.472 308.637 437.317C308.126 434.105 307.812 430.731 307.694 427.193C305.21 428.434 302.745 429.589 300.297 430.659C297.868 431.691 295.483 432.486 293.143 433.044C290.802 433.601 288.534 433.865 286.339 433.834C284.123 433.747 282.007 433.214 279.989 432.235C276.41 430.498 273.744 428.334 271.991 425.743C270.2 423.134 269.069 420.375 268.599 417.466C268.11 414.5 268.151 411.556 268.721 408.635C269.311 405.675 270.188 402.996 271.351 400.598C272.848 397.514 274.623 394.824 276.678 392.529C278.733 390.233 280.983 388.456 283.428 387.196C285.835 385.919 288.401 385.235 291.126 385.146C293.85 385.057 296.621 385.696 299.438 387.063ZM344.164 416.738C341.917 415.648 339.508 415.184 336.936 415.348C334.364 415.511 331.721 416.062 329.007 417.003C326.255 417.925 323.43 419.142 320.533 420.653C317.617 422.107 314.682 423.599 311.729 425.129C312.11 428.513 312.712 431.439 313.537 433.909C314.323 436.36 315.313 438.487 316.508 440.289C317.703 442.092 319.113 443.646 320.737 444.952C322.38 446.219 324.248 447.361 326.342 448.377C329.007 449.67 331.618 450.396 334.175 450.555C336.732 450.714 339.151 450.382 341.431 449.56C343.673 448.72 345.73 447.437 347.603 445.711C349.437 443.967 350.973 441.867 352.212 439.411C353.229 437.411 353.877 435.35 354.154 433.227C354.394 431.086 354.208 428.996 353.597 426.96C352.986 424.923 351.904 423.034 350.35 421.292C348.815 419.512 346.753 417.994 344.164 416.738ZM282.052 419.548C283.766 420.38 285.597 420.774 287.546 420.732C289.475 420.634 291.515 420.259 293.664 419.609C295.776 418.941 297.999 418.044 300.332 416.918C302.628 415.774 304.988 414.544 307.414 413.228C307.22 411.206 306.876 409.298 306.381 407.506C305.887 405.714 305.186 404.057 304.278 402.534C303.389 400.974 302.255 399.578 300.878 398.345C299.481 397.056 297.812 395.94 295.87 394.998C293.281 393.741 290.927 393.116 288.807 393.123C286.668 393.072 284.78 393.426 283.142 394.184C281.504 394.941 280.107 395.98 278.949 397.3C277.81 398.581 276.908 399.907 276.242 401.278C275.467 402.877 274.957 404.558 274.713 406.321C274.487 408.046 274.583 409.739 275 411.399C275.436 413.022 276.22 414.555 277.354 415.999C278.507 417.405 280.073 418.588 282.052 419.548Z" fill="white"/>
<path d="M783.32 430.671C784.332 430.828 785.761 431.164 787.606 431.677C789.488 432.169 791.676 432.732 794.172 433.364C796.704 433.975 799.483 434.593 802.508 435.217C805.534 435.841 808.725 436.372 812.082 436.809C815.439 437.245 818.902 437.525 822.471 437.649C826.097 437.788 829.719 437.662 833.338 437.271C836.956 436.88 840.54 436.168 844.088 435.136C847.657 434.141 851.081 432.718 854.361 430.866C857.861 428.889 860.644 426.759 862.708 424.476C864.829 422.208 866.313 419.888 867.16 417.514C868.043 415.12 868.339 412.718 868.047 410.307C867.775 407.933 867.005 405.622 865.736 403.374C864.154 400.574 862.239 398.302 859.991 396.558C857.8 394.831 855.6 393.473 853.39 392.486C851.201 391.535 849.178 390.879 847.322 390.518C845.486 390.194 844.133 390.035 843.262 390.041L843.156 389.08L856.499 386.502C858.486 387.956 860.272 389.353 861.855 390.694C863.497 392.052 865.009 393.482 866.392 394.985C867.796 396.525 869.111 398.164 870.335 399.902C871.618 401.656 872.894 403.657 874.163 405.905C875.016 407.416 875.756 409.112 876.381 410.995C877.007 412.877 877.419 414.855 877.619 416.93C877.818 419.004 877.744 421.111 877.398 423.251C877.109 425.407 876.439 427.534 875.389 429.634C874.397 431.749 872.982 433.763 871.146 435.675C869.331 437.624 867.004 439.399 864.167 441.001C861.145 442.708 857.845 443.964 854.267 444.77C850.725 445.555 847.054 446.024 843.253 446.178C839.488 446.312 835.655 446.192 831.751 445.821C827.848 445.449 824.042 444.95 820.335 444.322C816.627 443.695 813.077 443.002 809.685 442.245C806.329 441.467 803.273 440.787 800.515 440.206L812.532 461.486C813.302 462.849 814.069 464.166 814.834 465.434C815.657 466.719 816.436 467.883 817.171 468.926C817.942 469.949 818.668 470.803 819.347 471.488C820.046 472.211 820.687 472.7 821.268 472.955L821.393 473.176L809.62 479.824L782.215 431.295L783.32 430.671Z" fill="white"/>
</svg>
