<svg width="1148" height="1460" viewBox="0 0 1148 1460" fill="none" xmlns="http://www.w3.org/2000/svg">
<path d="M311.552 727.87L573.833 274.769L837.978 727.87H311.552Z" stroke="white" stroke-width="22"/>
<path d="M290.652 707.401L156.602 334.532L545.027 269.108L290.652 707.401Z" stroke="white" stroke-width="22"/>
<path d="M857.007 705.959L992.043 334.145L604.03 269.084L857.007 705.959Z" stroke="white" stroke-width="22"/>
<path d="M830.474 755.581L576.689 1080.64L314.972 753.872L830.474 755.581Z" stroke="white" stroke-width="22"/>
<path d="M556.004 235.784L195.783 299.426L542.851 77.9483L556.004 235.784Z" stroke="white" stroke-width="22"/>
<path d="M580.239 158.219L580.238 158.21L572.01 80.6339L947 295.812L588.364 235.411L580.239 158.219Z" stroke="white" stroke-width="22"/>
<path d="M266.957 735.32L108.118 803.149L139.805 379.387L266.957 735.32Z" stroke="white" stroke-width="22"/>
<path d="M121.875 828.352L280.472 760.746L521.981 1059.23L121.875 828.352Z" stroke="white" stroke-width="22"/>
<path d="M878.893 736.227L1014.48 809.723L1007.27 385.337L878.893 736.227Z" stroke="white" stroke-width="22"/>
<path d="M863.718 764.471L996.262 836.423L633.975 1057.33L863.718 764.471Z" stroke="white" stroke-width="22"/>
<path d="M616.413 837.74C616.147 838.625 615.899 839.722 615.669 841.03C615.397 842.339 615.163 843.965 614.966 845.909C614.77 847.853 614.611 850.157 614.489 852.822C614.367 855.529 614.281 858.681 614.231 862.277L613.657 903.596C613.607 907.193 613.821 910.053 614.299 912.176C614.778 914.298 615.369 915.936 616.072 917.088C616.733 918.24 617.441 919.075 618.196 919.594C618.908 920.111 619.515 920.585 620.017 921.016L620.013 921.27L600.426 928.298L600.43 928.044C600.696 927.159 600.965 926.062 601.237 924.754C601.467 923.445 601.681 921.798 601.877 919.811C602.074 917.867 602.233 915.542 602.355 912.835C602.477 910.17 602.563 907.04 602.613 903.443L603.187 862.124C603.237 858.527 603.239 855.374 603.192 852.665C603.144 849.998 603.049 847.69 602.907 845.741C602.765 843.792 602.597 842.161 602.404 840.846C602.168 839.531 601.929 838.427 601.688 837.535L601.691 837.281L616.417 837.486L616.413 837.74ZM531.222 928.859L531.226 928.606C531.45 927.72 531.656 926.622 531.843 925.313C532.031 924.004 532.201 922.377 532.355 920.432C532.467 918.487 532.584 916.161 532.706 913.454C532.786 910.789 532.85 907.658 532.9 904.061L533.444 864.963C529.592 864.994 526.459 865.078 524.045 865.214C521.588 865.349 519.638 865.575 518.195 865.894L517.941 865.89L518.067 856.814L518.321 856.818C519.756 857.092 521.699 857.351 524.151 857.597C526.56 857.842 529.689 858.034 533.538 858.172C533.539 855.082 533.513 852.373 533.461 850.045C533.408 847.717 533.31 845.684 533.164 843.947C533.019 842.252 532.849 840.789 532.654 839.559C532.459 838.371 532.24 837.374 531.997 836.566L532.001 836.313L547.234 836.524L547.23 836.778C546.965 837.579 546.719 838.57 546.491 839.752C546.262 840.976 546.072 842.433 545.922 844.124C545.729 845.856 545.573 847.886 545.457 850.212C545.297 852.537 545.175 855.244 545.09 858.332L588.63 858.938L588.591 861.794L532.555 928.878L531.222 928.859ZM544.995 865.124L544.441 904.983L577.111 865.57L544.995 865.124Z" fill="white"/>
<path d="M457.269 591.87H449.953V548.532H461.361L474.443 575.75L487.525 548.532H498.871V591.87H491.555V558.018L476.427 588.088H472.335L457.269 558.018V591.87ZM510.924 548.532H518.24V591.87H510.924V548.532ZM562.726 548.532H570.042V591.87H562.106L537.554 560.25V591.87H530.238V548.532H537.554L562.726 580.896V548.532ZM612.074 570.79H619.39V585.608C615.298 590.113 609.449 592.366 601.844 592.366C595.437 592.366 590.064 590.258 585.724 586.042C581.425 581.826 579.276 576.494 579.276 570.046C579.276 563.598 581.467 558.225 585.848 553.926C590.271 549.627 595.603 547.478 601.844 547.478C608.085 547.478 613.273 549.297 617.406 552.934L613.5 558.514C611.805 557.067 610.09 556.075 608.354 555.538C606.659 554.959 604.675 554.67 602.402 554.67C598.021 554.67 594.342 556.096 591.366 558.948C588.39 561.759 586.902 565.479 586.902 570.108C586.902 574.696 588.349 578.395 591.242 581.206C594.135 583.975 597.628 585.36 601.72 585.36C605.853 585.36 609.305 584.471 612.074 582.694V570.79ZM628.99 591.87V548.532H636.306V584.926H656.084V591.87H628.99ZM694.549 548.532V555.414H671.423V566.884H692.193V573.394H671.423V584.988H695.293V591.87H664.107V548.532H694.549Z" fill="white"/>
<path d="M299.438 387.063C301.494 388.06 303.213 389.412 304.596 391.118C305.998 392.786 307.166 394.693 308.1 396.839C309.014 398.929 309.751 401.192 310.309 403.627C310.83 406.043 311.238 408.499 311.533 410.993C314.428 409.388 317.372 407.877 320.365 406.46C323.338 404.986 326.295 403.834 329.238 403.004C332.143 402.156 335.024 401.743 337.882 401.766C340.721 401.732 343.472 402.362 346.137 403.655C349.145 405.115 351.762 407.137 353.988 409.722C356.176 412.289 357.801 415.241 358.863 418.579C359.925 421.916 360.299 425.555 359.986 429.495C359.674 433.436 358.492 437.519 356.441 441.745C354.151 446.466 351.574 450.225 348.711 453.022C345.867 455.782 342.91 457.757 339.839 458.948C336.73 460.12 333.632 460.592 330.544 460.364C327.456 460.136 324.542 459.357 321.801 458.026C319.174 456.752 316.987 455.103 315.241 453.079C313.513 451.018 312.113 448.669 311.041 446.032C309.93 443.377 309.129 440.471 308.637 437.317C308.126 434.105 307.812 430.731 307.694 427.193C305.21 428.434 302.745 429.589 300.297 430.659C297.868 431.691 295.483 432.486 293.143 433.044C290.802 433.601 288.534 433.865 286.339 433.834C284.123 433.747 282.007 433.214 279.989 432.235C276.41 430.498 273.744 428.334 271.991 425.743C270.2 423.134 269.069 420.375 268.599 417.465C268.11 414.5 268.151 411.556 268.721 408.635C269.311 405.675 270.188 402.996 271.351 400.598C272.848 397.514 274.623 394.824 276.678 392.529C278.733 390.233 280.983 388.456 283.428 387.196C285.835 385.919 288.401 385.235 291.126 385.146C293.85 385.057 296.621 385.696 299.438 387.063ZM344.164 416.738C341.917 415.648 339.508 415.184 336.936 415.347C334.364 415.51 331.721 416.062 329.007 417.003C326.255 417.925 323.43 419.142 320.533 420.652C317.617 422.107 314.682 423.599 311.729 425.129C312.11 428.512 312.712 431.439 313.537 433.908C314.323 436.359 315.313 438.486 316.508 440.289C317.703 442.092 319.113 443.646 320.737 444.952C322.38 446.219 324.248 447.361 326.342 448.377C329.007 449.67 331.618 450.396 334.175 450.555C336.732 450.714 339.151 450.382 341.431 449.56C343.673 448.72 345.73 447.437 347.603 445.711C349.437 443.967 350.973 441.867 352.212 439.411C353.229 437.411 353.877 435.35 354.154 433.227C354.394 431.085 354.208 428.996 353.597 426.959C352.986 424.923 351.904 423.033 350.35 421.292C348.815 419.512 346.753 417.994 344.164 416.738ZM282.052 419.548C283.766 420.38 285.597 420.774 287.546 420.732C289.475 420.634 291.515 420.259 293.664 419.609C295.776 418.94 297.999 418.043 300.332 416.918C302.628 415.774 304.988 414.544 307.414 413.228C307.22 411.206 306.876 409.298 306.381 407.506C305.887 405.714 305.186 404.057 304.278 402.534C303.389 400.974 302.255 399.578 300.878 398.345C299.481 397.055 297.812 395.94 295.87 394.997C293.281 393.741 290.927 393.116 288.807 393.123C286.668 393.072 284.78 393.426 283.142 394.184C281.504 394.941 280.107 395.98 278.949 397.299C277.81 398.581 276.908 399.907 276.242 401.278C275.467 402.877 274.957 404.558 274.713 406.321C274.487 408.046 274.583 409.739 275 411.399C275.436 413.022 276.22 414.555 277.354 415.999C278.507 417.405 280.073 418.588 282.052 419.548Z" fill="white"/>
<path d="M783.32 430.671C784.332 430.828 785.761 431.164 787.606 431.677C789.488 432.169 791.676 432.732 794.172 433.364C796.704 433.975 799.483 434.593 802.508 435.217C805.534 435.841 808.725 436.371 812.082 436.808C815.439 437.245 818.902 437.525 822.471 437.648C826.097 437.788 829.719 437.662 833.338 437.27C836.956 436.879 840.54 436.168 844.088 435.136C847.657 434.141 851.081 432.718 854.361 430.866C857.861 428.889 860.644 426.759 862.708 424.475C864.829 422.208 866.313 419.888 867.16 417.514C868.043 415.12 868.339 412.718 868.047 410.307C867.775 407.933 867.005 405.622 865.736 403.374C864.154 400.574 862.239 398.302 859.991 396.558C857.8 394.831 855.6 393.473 853.39 392.486C851.201 391.535 849.178 390.879 847.322 390.518C845.486 390.194 844.133 390.035 843.262 390.041L843.156 389.08L856.499 386.502C858.486 387.956 860.272 389.353 861.855 390.694C863.497 392.052 865.009 393.482 866.392 394.985C867.796 396.524 869.111 398.164 870.335 399.902C871.618 401.656 872.894 403.657 874.163 405.905C875.016 407.416 875.756 409.112 876.381 410.995C877.007 412.877 877.419 414.855 877.619 416.93C877.818 419.004 877.744 421.111 877.398 423.251C877.109 425.407 876.439 427.534 875.389 429.634C874.397 431.749 872.982 433.763 871.146 435.675C869.331 437.623 867.004 439.399 864.167 441.001C861.145 442.708 857.845 443.964 854.267 444.77C850.725 445.555 847.054 446.024 843.253 446.178C839.488 446.311 835.655 446.192 831.751 445.821C827.848 445.449 824.042 444.95 820.335 444.322C816.627 443.694 813.077 443.002 809.685 442.245C806.329 441.467 803.273 440.787 800.515 440.206L812.532 461.486C813.302 462.849 814.069 464.165 814.834 465.434C815.657 466.719 816.436 467.883 817.171 468.926C817.942 469.948 818.668 470.802 819.347 471.488C820.046 472.211 820.687 472.7 821.268 472.955L821.393 473.176L809.62 479.824L782.215 431.295L783.32 430.671Z" fill="white"/>
<path d="M119.575 1190.64C119.575 1205.63 113.031 1215.08 99.9448 1218.98L123.735 1252H104.235L82.5248 1221.45H62.3748V1252H47.0348V1161.13H80.8348C94.7015 1161.13 104.625 1163.47 110.605 1168.15C116.585 1172.83 119.575 1180.33 119.575 1190.64ZM81.4848 1207.54C90.1515 1207.54 96.0448 1206.2 99.1648 1203.51C102.285 1200.82 103.845 1196.53 103.845 1190.64C103.845 1184.66 102.241 1180.59 99.0348 1178.42C95.8281 1176.17 90.1081 1175.04 81.8748 1175.04H62.3748V1207.54H81.4848ZM206.355 1182.58C200.202 1176.17 192.618 1172.96 183.605 1172.96C174.592 1172.96 166.965 1176.17 160.725 1182.58C154.572 1188.99 151.495 1196.79 151.495 1205.98C151.495 1215.08 154.572 1222.84 160.725 1229.25C166.965 1235.66 174.592 1238.87 183.605 1238.87C192.618 1238.87 200.202 1235.66 206.355 1229.25C212.595 1222.84 215.715 1215.08 215.715 1205.98C215.715 1196.79 212.595 1188.99 206.355 1182.58ZM217.665 1239.52C208.478 1248.45 197.125 1252.91 183.605 1252.91C170.085 1252.91 158.732 1248.45 149.545 1239.52C140.358 1230.51 135.765 1219.33 135.765 1205.98C135.765 1192.55 140.358 1181.37 149.545 1172.44C158.732 1163.43 170.085 1158.92 183.605 1158.92C197.125 1158.92 208.478 1163.43 217.665 1172.44C226.852 1181.37 231.445 1192.55 231.445 1205.98C231.445 1219.33 226.852 1230.51 217.665 1239.52ZM250.795 1252V1161.13H266.135V1237.44H307.605V1252H250.795ZM324.427 1161.13H339.767V1252H324.427V1161.13ZM392.355 1173.09C387.935 1173.09 384.295 1174 381.435 1175.82C378.575 1177.64 377.145 1180.41 377.145 1184.14C377.145 1187.78 378.575 1190.6 381.435 1192.59C384.295 1194.5 390.362 1196.58 399.635 1198.83C408.995 1201.08 416.015 1204.25 420.695 1208.32C425.462 1212.39 427.845 1218.42 427.845 1226.39C427.845 1234.28 424.855 1240.69 418.875 1245.63C412.895 1250.57 405.052 1253.04 395.345 1253.04C381.132 1253.04 368.522 1248.14 357.515 1238.35L367.135 1226.78C376.322 1234.75 385.855 1238.74 395.735 1238.74C400.675 1238.74 404.575 1237.7 407.435 1235.62C410.382 1233.45 411.855 1230.64 411.855 1227.17C411.855 1223.62 410.469 1220.89 407.695 1218.98C405.009 1216.99 400.329 1215.21 393.655 1213.65C386.982 1212 381.912 1210.53 378.445 1209.23C374.979 1207.84 371.902 1206.07 369.215 1203.9C363.842 1199.83 361.155 1193.59 361.155 1185.18C361.155 1176.77 364.189 1170.32 370.255 1165.81C376.409 1161.22 383.992 1158.92 393.005 1158.92C398.812 1158.92 404.575 1159.87 410.295 1161.78C416.015 1163.69 420.955 1166.37 425.115 1169.84L416.925 1181.41C414.239 1178.98 410.599 1176.99 406.005 1175.43C401.412 1173.87 396.862 1173.09 392.355 1173.09ZM481.13 1175.17V1252H465.79V1175.17H438.23V1161.13H508.69V1175.17H481.13ZM522.017 1220.02V1206.37H565.177V1220.02H522.017ZM602.433 1252H587.093V1161.13H611.013L638.443 1218.2L665.873 1161.13H689.663V1252H674.323V1181.02L642.603 1244.07H634.023L602.433 1181.02V1252ZM714.935 1161.13H730.275V1252H714.935V1161.13ZM823.553 1161.13H838.893V1252H822.253L770.773 1185.7V1252H755.433V1161.13H770.773L823.553 1228.99V1161.13ZM927.025 1207.8H942.365V1238.87C933.785 1248.32 921.522 1253.04 905.575 1253.04C892.142 1253.04 880.875 1248.62 871.775 1239.78C862.762 1230.94 858.255 1219.76 858.255 1206.24C858.255 1192.72 862.848 1181.45 872.035 1172.44C881.308 1163.43 892.488 1158.92 905.575 1158.92C918.662 1158.92 929.538 1162.73 938.205 1170.36L930.015 1182.06C926.462 1179.03 922.865 1176.95 919.225 1175.82C915.672 1174.61 911.512 1174 906.745 1174C897.558 1174 889.845 1176.99 883.605 1182.97C877.365 1188.86 874.245 1196.66 874.245 1206.37C874.245 1215.99 877.278 1223.75 883.345 1229.64C889.412 1235.45 896.735 1238.35 905.315 1238.35C913.982 1238.35 921.218 1236.49 927.025 1232.76V1207.8ZM962.494 1252V1161.13H977.834V1237.44H1019.3V1252H962.494ZM1099.96 1161.13V1175.56H1051.47V1199.61H1095.02V1213.26H1051.47V1237.57H1101.52V1252H1036.13V1161.13H1099.96Z" fill="white"/>
<path d="M265.275 1376.1C264.142 1376.1 263.575 1375.27 263.575 1373.6C263.575 1371.07 264.842 1366.73 267.375 1360.6C269.909 1354.4 273.742 1346.47 278.875 1336.8C281.809 1331.33 284.209 1326.8 286.075 1323.2C287.942 1319.6 289.409 1316.73 290.475 1314.6C291.542 1312.4 292.309 1310.77 292.775 1309.7C293.242 1308.57 293.509 1307.73 293.575 1307.2C293.575 1306.93 293.642 1306.73 293.775 1306.6L289.875 1306.4C289.009 1306.33 288.342 1306.1 287.875 1305.7C287.475 1305.3 287.275 1304.87 287.275 1304.4C287.275 1303.47 287.809 1303 288.875 1303C303.409 1303 316.009 1306 326.675 1312C332.209 1315.13 336.775 1319.07 340.375 1323.8C343.975 1328.47 345.775 1333.77 345.775 1339.7C345.775 1344.5 344.442 1348.63 341.775 1352.1C339.109 1355.57 335.475 1358.57 330.875 1361.1C326.342 1363.63 321.209 1365.9 315.475 1367.9C311.609 1369.23 307.309 1370.53 302.575 1371.8C297.842 1373 293.209 1373.97 288.675 1374.7C284.142 1375.43 280.142 1375.8 276.675 1375.8C274.275 1375.8 272.409 1375.47 271.075 1374.8C269.675 1374.07 268.975 1373.27 268.975 1372.4C268.975 1371.67 269.375 1371.3 270.175 1371.3C270.709 1371.3 271.209 1371.4 271.675 1371.6C272.142 1371.8 272.809 1372 273.675 1372.2C274.542 1372.4 275.809 1372.5 277.475 1372.5C279.875 1372.5 282.575 1372.3 285.575 1371.9C288.642 1371.43 291.809 1370.83 295.075 1370.1C298.409 1369.37 301.642 1368.57 304.775 1367.7C307.909 1366.77 310.775 1365.87 313.375 1365C318.975 1363.07 323.942 1360.93 328.275 1358.6C332.675 1356.27 336.109 1353.5 338.575 1350.3C341.042 1347.1 342.275 1343.23 342.275 1338.7C342.275 1329.17 336.709 1321.23 325.575 1314.9C318.175 1310.77 308.542 1308.07 296.675 1306.8C296.942 1307.13 297.075 1307.5 297.075 1307.9C297.075 1308.5 296.575 1309.87 295.575 1312C294.642 1314.13 293.375 1316.7 291.775 1319.7C290.242 1322.7 288.609 1325.87 286.875 1329.2C285.142 1332.53 283.475 1335.67 281.875 1338.6C271.809 1357.87 266.775 1369.47 266.775 1373.4C266.775 1373.67 266.775 1373.87 266.775 1374C266.842 1374.13 266.875 1374.33 266.875 1374.6C266.875 1374.93 266.742 1375.27 266.475 1375.6C266.209 1375.93 265.809 1376.1 265.275 1376.1ZM358.36 1372.5C352.96 1372.5 350.26 1369.47 350.26 1363.4C350.26 1360.6 350.926 1357.67 352.26 1354.6C353.593 1351.53 355.36 1348.7 357.56 1346.1C359.76 1343.43 362.193 1341.27 364.86 1339.6C367.593 1337.93 370.36 1337.1 373.16 1337.1C375.626 1337.1 377.426 1338.03 378.56 1339.9C379.693 1341.77 380.26 1343.83 380.26 1346.1C380.26 1349.1 379.66 1352.17 378.46 1355.3C377.26 1358.37 375.626 1361.2 373.56 1363.8C371.493 1366.4 369.16 1368.5 366.56 1370.1C363.96 1371.7 361.226 1372.5 358.36 1372.5ZM358.26 1369.3C358.66 1369.3 358.893 1369.27 358.96 1369.2C361.56 1368.87 363.96 1367.93 366.16 1366.4C368.36 1364.87 370.26 1362.97 371.86 1360.7C373.526 1358.37 374.793 1355.87 375.66 1353.2C376.526 1350.53 376.96 1347.9 376.96 1345.3C376.96 1343.77 376.526 1342.57 375.66 1341.7C374.793 1340.83 373.693 1340.4 372.36 1340.4C370.426 1340.4 368.36 1341.2 366.16 1342.8C364.026 1344.4 361.993 1346.43 360.06 1348.9C358.193 1351.37 356.66 1353.97 355.46 1356.7C354.26 1359.37 353.66 1361.77 353.66 1363.9C353.66 1367.5 355.193 1369.3 358.26 1369.3ZM380.061 1375.5C378.994 1375.5 378.461 1375.07 378.461 1374.2C378.461 1373.87 378.594 1373.47 378.861 1373C379.127 1372.47 379.361 1372.03 379.561 1371.7L388.561 1353.6C392.427 1345.73 394.361 1341.37 394.361 1340.5C394.361 1339.57 394.827 1339.1 395.761 1339.1C397.027 1339.1 397.661 1339.77 397.661 1341.1C397.661 1341.57 397.361 1342.57 396.761 1344.1C396.161 1345.63 395.394 1347.37 394.461 1349.3C392.861 1352.77 391.527 1355.43 390.461 1357.3C392.461 1354.97 394.494 1352.77 396.561 1350.7C398.627 1348.63 400.727 1346.67 402.861 1344.8C409.194 1339.27 414.061 1336.5 417.461 1336.5C419.794 1336.5 420.961 1337.6 420.961 1339.8C420.961 1341.8 419.261 1346.3 415.861 1353.3C412.461 1360.37 410.761 1364.83 410.761 1366.7C410.761 1367.57 411.061 1368 411.661 1368C411.861 1368 412.161 1367.93 412.561 1367.8C413.027 1367.6 413.494 1367.5 413.961 1367.5C415.094 1367.5 415.661 1368.03 415.661 1369.1C415.661 1370.43 414.227 1371.1 411.361 1371.1C410.027 1371.1 409.061 1370.8 408.461 1370.2C407.861 1369.53 407.561 1368.67 407.561 1367.6C407.561 1364.4 409.194 1359.53 412.461 1353C415.727 1346.53 417.361 1342.63 417.361 1341.3C417.361 1340.5 417.061 1340.1 416.461 1340.1C414.994 1340.1 412.627 1341.33 409.361 1343.8C405.827 1346.47 402.294 1349.53 398.761 1353C395.227 1356.47 391.861 1360.43 388.661 1364.9L381.661 1374.6C381.261 1375.2 380.727 1375.5 380.061 1375.5ZM432.307 1327.7C431.907 1327.7 431.707 1327.53 431.707 1327.2C431.707 1326.8 432.307 1325.7 433.507 1323.9C434.707 1322.17 435.407 1321 435.607 1320.4C436.407 1318.07 436.807 1314.23 436.807 1308.9C436.807 1307.77 437.373 1307.2 438.507 1307.2C439.773 1307.2 440.407 1307.77 440.407 1308.9C440.407 1317.1 438.04 1323.2 433.307 1327.2C432.773 1327.53 432.44 1327.7 432.307 1327.7ZM440.887 1379.9C439.62 1379.9 438.987 1378.9 438.987 1376.9C438.987 1373.97 440.62 1368.83 443.887 1361.5C447.22 1354.17 452.154 1344.57 458.687 1332.7C456.154 1332.7 453.754 1333.03 451.487 1333.7C449.287 1334.3 448.12 1335.07 447.987 1336C447.92 1336.27 447.754 1336.53 447.487 1336.8C447.287 1337 446.954 1337.1 446.487 1337.1C445.42 1337.1 444.887 1336.57 444.887 1335.5C444.887 1333.77 446.254 1332.33 448.987 1331.2C451.72 1330.07 455.554 1329.5 460.487 1329.5L467.387 1318.1C467.854 1317.37 468.354 1316.57 468.887 1315.7C469.42 1314.77 470.02 1313.77 470.687 1312.7C471.354 1311.77 472.12 1311.3 472.987 1311.3C473.52 1311.3 473.92 1311.47 474.187 1311.8C474.454 1312.07 474.587 1312.37 474.587 1312.7C474.587 1313.7 473.12 1316.37 470.187 1320.7C466.52 1326.1 464.554 1329.03 464.287 1329.5C465.287 1329.5 466.787 1329.6 468.787 1329.8C470.787 1329.93 473.154 1330.17 475.887 1330.5C476.887 1330.57 477.387 1331.07 477.387 1332C477.387 1333.07 476.787 1333.6 475.587 1333.6C475.12 1333.6 474.187 1333.53 472.787 1333.4C471.387 1333.2 469.887 1333.03 468.287 1332.9C466.687 1332.77 465.32 1332.73 464.187 1332.8L462.687 1332.9C449.154 1356.7 442.42 1371.5 442.487 1377.3L442.587 1378.1V1378.3C442.587 1379.37 442.02 1379.9 440.887 1379.9ZM487.857 1375.9C486.523 1375.9 485.857 1375.33 485.857 1374.2C485.857 1373.27 487.623 1369.2 491.157 1362C494.09 1356.07 496.29 1351.77 497.757 1349.1C497.09 1348.83 496.757 1348.3 496.757 1347.5C496.757 1346.9 497.09 1346.43 497.757 1346.1C498.423 1345.77 499.057 1345.47 499.657 1345.2C502.19 1340.87 504.523 1337 506.657 1333.6C508.79 1330.13 510.69 1327.13 512.357 1324.6C515.623 1319.6 518.39 1315.6 520.657 1312.6C522.923 1309.6 524.723 1307.6 526.057 1306.6C527.057 1306.33 529.657 1306.2 533.857 1306.2C541.19 1306.2 546.957 1307.33 551.157 1309.6C555.357 1311.8 557.457 1314.7 557.457 1318.3C557.457 1324.23 552.99 1329.6 544.057 1334.4C538.19 1337.6 531.023 1340.2 522.557 1342.2C525.49 1342.6 528.123 1343.37 530.457 1344.5C532.857 1345.57 534.757 1347.03 536.157 1348.9C537.623 1350.7 538.357 1352.93 538.357 1355.6C538.357 1357.4 537.957 1359.4 537.157 1361.6C536.423 1363.73 535.457 1365.83 534.257 1367.9C533.057 1369.9 531.79 1371.67 530.457 1373.2C529.923 1373.87 529.223 1374.2 528.357 1374.2C527.223 1374.2 526.657 1373.83 526.657 1373.1C526.657 1372.83 526.857 1372.5 527.257 1372.1C527.657 1371.63 528.09 1371.07 528.557 1370.4C529.157 1369.53 529.89 1368.27 530.757 1366.6C531.623 1364.93 532.39 1363.13 533.057 1361.2C533.79 1359.27 534.157 1357.47 534.157 1355.8C534.157 1353.13 533.357 1350.97 531.757 1349.3C530.223 1347.63 528.223 1346.43 525.757 1345.7C523.29 1344.9 520.69 1344.5 517.957 1344.5C513.223 1344.5 508.09 1345.5 502.557 1347.5C500.89 1350.57 499.257 1353.6 497.657 1356.6C496.123 1359.6 494.69 1362.6 493.357 1365.6C492.89 1366.67 492.323 1368 491.657 1369.6C490.99 1371.13 490.19 1372.93 489.257 1375C488.99 1375.6 488.523 1375.9 487.857 1375.9ZM504.657 1343.7C506.923 1343.03 508.79 1342.6 510.257 1342.4C511.79 1342.13 513.49 1341.9 515.357 1341.7C515.69 1341.63 516.623 1341.37 518.157 1340.9C519.757 1340.37 521.99 1339.67 524.857 1338.8C528.19 1337.73 531.223 1336.63 533.957 1335.5C536.69 1334.37 539.123 1333.23 541.257 1332.1C549.257 1327.77 553.257 1323.17 553.257 1318.3C553.257 1316.7 552.59 1315.33 551.257 1314.2C549.99 1313.07 548.323 1312.17 546.257 1311.5C544.257 1310.77 542.09 1310.23 539.757 1309.9C537.423 1309.57 535.257 1309.4 533.257 1309.4C532.19 1309.4 531.223 1309.47 530.357 1309.6C529.49 1309.67 528.69 1309.77 527.957 1309.9C524.49 1313.97 521.057 1318.4 517.657 1323.2C514.323 1327.93 511.39 1332.47 508.857 1336.8C507.657 1338.87 506.79 1340.37 506.257 1341.3C505.723 1342.17 505.19 1342.97 504.657 1343.7ZM561.68 1372.5C556.28 1372.5 553.58 1369.47 553.58 1363.4C553.58 1360.6 554.247 1357.67 555.58 1354.6C556.913 1351.53 558.68 1348.7 560.88 1346.1C563.08 1343.43 565.513 1341.27 568.18 1339.6C570.913 1337.93 573.68 1337.1 576.48 1337.1C578.947 1337.1 580.747 1338.03 581.88 1339.9C583.013 1341.77 583.58 1343.83 583.58 1346.1C583.58 1349.1 582.98 1352.17 581.78 1355.3C580.58 1358.37 578.947 1361.2 576.88 1363.8C574.813 1366.4 572.48 1368.5 569.88 1370.1C567.28 1371.7 564.547 1372.5 561.68 1372.5ZM561.58 1369.3C561.98 1369.3 562.213 1369.27 562.28 1369.2C564.88 1368.87 567.28 1367.93 569.48 1366.4C571.68 1364.87 573.58 1362.97 575.18 1360.7C576.847 1358.37 578.113 1355.87 578.98 1353.2C579.847 1350.53 580.28 1347.9 580.28 1345.3C580.28 1343.77 579.847 1342.57 578.98 1341.7C578.113 1340.83 577.013 1340.4 575.68 1340.4C573.747 1340.4 571.68 1341.2 569.48 1342.8C567.347 1344.4 565.313 1346.43 563.38 1348.9C561.513 1351.37 559.98 1353.97 558.78 1356.7C557.58 1359.37 556.98 1361.77 556.98 1363.9C556.98 1367.5 558.513 1369.3 561.58 1369.3ZM597.781 1375.7C594.714 1375.7 592.348 1374.77 590.681 1372.9C589.081 1370.97 588.281 1368.43 588.281 1365.3C588.281 1363.03 588.681 1360.3 589.481 1357.1C590.881 1351.7 593.248 1345.43 596.581 1338.3C599.181 1332.9 601.981 1327.6 604.981 1322.4C607.981 1317.13 611.281 1311.97 614.881 1306.9C620.614 1298.77 624.614 1294.7 626.881 1294.7C628.348 1294.7 629.081 1295.1 629.081 1295.9C629.081 1297.03 627.214 1299.87 623.481 1304.4L616.481 1312.9C610.414 1320.23 605.448 1327.73 601.581 1335.4C597.781 1343.07 594.814 1350.73 592.681 1358.4C592.081 1360.6 591.781 1362.67 591.781 1364.6C591.781 1369.67 593.848 1372.2 597.981 1372.2C599.448 1372.2 600.948 1371.77 602.481 1370.9C604.014 1370.1 604.848 1369.7 604.981 1369.7C605.781 1369.7 606.181 1370.27 606.181 1371.4C606.181 1372.4 605.814 1373.17 605.081 1373.7C602.814 1375.03 600.381 1375.7 597.781 1375.7ZM623.074 1375.7C620.007 1375.7 617.64 1374.77 615.974 1372.9C614.374 1370.97 613.574 1368.43 613.574 1365.3C613.574 1363.03 613.974 1360.3 614.774 1357.1C616.174 1351.7 618.54 1345.43 621.874 1338.3C624.474 1332.9 627.274 1327.6 630.274 1322.4C633.274 1317.13 636.574 1311.97 640.174 1306.9C645.907 1298.77 649.907 1294.7 652.174 1294.7C653.64 1294.7 654.374 1295.1 654.374 1295.9C654.374 1297.03 652.507 1299.87 648.774 1304.4L641.774 1312.9C635.707 1320.23 630.74 1327.73 626.874 1335.4C623.074 1343.07 620.107 1350.73 617.974 1358.4C617.374 1360.6 617.074 1362.67 617.074 1364.6C617.074 1369.67 619.14 1372.2 623.274 1372.2C624.74 1372.2 626.24 1371.77 627.774 1370.9C629.307 1370.1 630.14 1369.7 630.274 1369.7C631.074 1369.7 631.474 1370.27 631.474 1371.4C631.474 1372.4 631.107 1373.17 630.374 1373.7C628.107 1375.03 625.674 1375.7 623.074 1375.7ZM685.285 1377.3C681.018 1377.3 676.985 1376.6 673.185 1375.2C669.451 1373.8 666.418 1371.8 664.085 1369.2C661.751 1366.6 660.585 1363.53 660.585 1360C660.585 1358.87 660.785 1357.67 661.185 1356.4C661.718 1354.67 662.318 1353.8 662.985 1353.8C663.985 1353.8 664.485 1354.37 664.485 1355.5C664.485 1355.97 664.351 1356.6 664.085 1357.4C663.818 1358.2 663.685 1358.97 663.685 1359.7C663.685 1362.63 664.685 1365.2 666.685 1367.4C668.685 1369.53 671.251 1371.17 674.385 1372.3C677.585 1373.43 680.918 1374 684.385 1374C691.918 1374 698.318 1372.2 703.585 1368.6C706.318 1366.73 708.585 1364.5 710.385 1361.9C712.185 1359.23 713.085 1356.4 713.085 1353.4C713.085 1350.67 712.385 1348.4 710.985 1346.6C709.651 1344.8 707.785 1343.27 705.385 1342C702.985 1340.67 700.218 1339.47 697.085 1338.4C688.151 1335.27 683.685 1331.47 683.685 1327C683.685 1324.6 684.585 1322.3 686.385 1320.1C688.185 1317.9 690.385 1315.97 692.985 1314.3C695.585 1312.57 698.085 1311.27 700.485 1310.4C704.018 1309.07 707.285 1308.17 710.285 1307.7C713.351 1307.17 716.185 1306.9 718.785 1306.9C722.318 1306.9 724.818 1307.73 726.285 1309.4C727.751 1311 728.485 1313 728.485 1315.4C728.485 1317.27 728.018 1319.07 727.085 1320.8C726.218 1322.53 725.018 1324.03 723.485 1325.3C721.751 1326.77 720.351 1327.5 719.285 1327.5C718.151 1327.5 717.585 1326.97 717.585 1325.9C717.585 1325.3 717.885 1324.87 718.485 1324.6C722.951 1322.33 725.185 1319.23 725.185 1315.3C725.185 1313.57 724.685 1312.3 723.685 1311.5C722.751 1310.63 721.118 1310.2 718.785 1310.2C716.651 1310.2 714.251 1310.43 711.585 1310.9C708.985 1311.37 706.318 1312.07 703.585 1313C701.185 1313.87 698.751 1315.03 696.285 1316.5C693.818 1317.97 691.751 1319.57 690.085 1321.3C688.485 1323.03 687.685 1324.77 687.685 1326.5C687.685 1330.17 691.218 1333.1 698.285 1335.3C710.485 1339.17 716.585 1345.1 716.585 1353.1C716.585 1355.5 716.018 1357.87 714.885 1360.2C713.818 1362.53 712.385 1364.67 710.585 1366.6C708.851 1368.53 706.985 1370.2 704.985 1371.6C702.118 1373.6 698.985 1375.03 695.585 1375.9C692.251 1376.83 688.818 1377.3 685.285 1377.3ZM745.1 1333.6C743.966 1333.6 743.4 1333.03 743.4 1331.9C743.4 1331.57 743.633 1330.97 744.1 1330.1C744.566 1329.17 745.1 1328.23 745.7 1327.3C746.3 1326.37 746.766 1325.73 747.1 1325.4C748.233 1324.13 749.1 1323.33 749.7 1323C750.366 1322.67 750.966 1322.5 751.5 1322.5C752.9 1322.5 753.6 1323.13 753.6 1324.4C753.6 1324.87 753.3 1325.43 752.7 1326.1C752.166 1326.7 751.533 1327.27 750.8 1327.8C749.733 1328.47 749.066 1329 748.8 1329.4L746.6 1332.5C746.533 1332.77 746.366 1333.03 746.1 1333.3C745.9 1333.5 745.566 1333.6 745.1 1333.6ZM728.1 1374.1C726.233 1374.1 724.866 1373.73 724 1373C723.2 1372.27 722.8 1371.17 722.8 1369.7C722.8 1368.3 723.233 1366.4 724.1 1364C724.966 1361.53 726.066 1358.9 727.4 1356.1C728.8 1353.3 730.266 1350.63 731.8 1348.1C733.333 1345.57 734.8 1343.5 736.2 1341.9C737.666 1340.23 738.833 1339.4 739.7 1339.4C740.9 1339.4 741.5 1339.93 741.5 1341C741.5 1341.67 740.933 1342.93 739.8 1344.8C738.666 1346.67 737.433 1348.6 736.1 1350.6C735.566 1351.33 734.833 1352.33 733.9 1353.6C732.966 1354.87 732.066 1356.07 731.2 1357.2C730.333 1358.27 729.766 1359 729.5 1359.4C728.833 1360.4 728.133 1362.03 727.4 1364.3C726.6 1366.57 726.2 1368.3 726.2 1369.5C726.2 1370.03 726.3 1370.43 726.5 1370.7C726.766 1370.97 727.333 1371.1 728.2 1371.1C729.866 1371.1 731.733 1370.57 733.8 1369.5C735.866 1368.43 737.966 1367.1 740.1 1365.5C742.233 1363.83 744.233 1362.13 746.1 1360.4C748.033 1358.67 749.666 1357.17 751 1355.9C751.266 1355.63 751.666 1355.5 752.2 1355.5C753.2 1355.5 753.7 1355.9 753.7 1356.7C753.7 1357.43 753.233 1358.27 752.3 1359.2C750.5 1361 748.833 1362.6 747.3 1364C745.766 1365.4 744.3 1366.63 742.9 1367.7C740.7 1369.3 738.266 1370.77 735.6 1372.1C732.933 1373.43 730.433 1374.1 728.1 1374.1ZM744.514 1375.5C743.447 1375.5 742.914 1375.07 742.914 1374.2C742.914 1373.87 743.047 1373.47 743.314 1373C743.58 1372.47 743.814 1372.03 744.014 1371.7L753.014 1353.6C756.88 1345.73 758.814 1341.37 758.814 1340.5C758.814 1339.57 759.28 1339.1 760.214 1339.1C761.48 1339.1 762.114 1339.77 762.114 1341.1C762.114 1341.57 761.814 1342.57 761.214 1344.1C760.614 1345.63 759.847 1347.37 758.914 1349.3C757.314 1352.77 755.98 1355.43 754.914 1357.3C756.914 1354.97 758.947 1352.77 761.014 1350.7C763.08 1348.63 765.18 1346.67 767.314 1344.8C773.647 1339.27 778.514 1336.5 781.914 1336.5C784.247 1336.5 785.414 1337.6 785.414 1339.8C785.414 1341.8 783.714 1346.3 780.314 1353.3C776.914 1360.37 775.214 1364.83 775.214 1366.7C775.214 1367.57 775.514 1368 776.114 1368C776.314 1368 776.614 1367.93 777.014 1367.8C777.48 1367.6 777.947 1367.5 778.414 1367.5C779.547 1367.5 780.114 1368.03 780.114 1369.1C780.114 1370.43 778.68 1371.1 775.814 1371.1C774.48 1371.1 773.514 1370.8 772.914 1370.2C772.314 1369.53 772.014 1368.67 772.014 1367.6C772.014 1364.4 773.647 1359.53 776.914 1353C780.18 1346.53 781.814 1342.63 781.814 1341.3C781.814 1340.5 781.514 1340.1 780.914 1340.1C779.447 1340.1 777.08 1341.33 773.814 1343.8C770.28 1346.47 766.747 1349.53 763.214 1353C759.68 1356.47 756.314 1360.43 753.114 1364.9L746.114 1374.6C745.714 1375.2 745.18 1375.5 744.514 1375.5ZM789.66 1405.9C786.86 1405.9 784.76 1404.83 783.36 1402.7C781.96 1400.63 781.26 1398.27 781.26 1395.6C781.26 1393.6 781.36 1391.63 781.56 1389.7C781.693 1387.83 781.926 1385.97 782.26 1384.1C782.46 1383.03 782.926 1382.5 783.66 1382.5C784.993 1382.5 785.66 1383.2 785.66 1384.6C785.66 1385 785.56 1385.6 785.36 1386.4C785.16 1387.07 785.06 1387.57 785.06 1387.9C784.926 1388.97 784.826 1390.07 784.76 1391.2C784.693 1392.4 784.66 1393.6 784.66 1394.8C784.66 1400.07 786.593 1402.7 790.46 1402.7C791.593 1402.7 792.893 1401.93 794.36 1400.4C795.893 1398.87 797.26 1397.2 798.46 1395.4C801.26 1391.2 804.226 1384.57 807.36 1375.5L810.66 1366C805.26 1372.47 800.393 1375.7 796.06 1375.7C793.393 1375.7 791.326 1374.7 789.86 1372.7C788.393 1370.7 787.66 1368.27 787.66 1365.4C787.66 1359.67 790.193 1353.33 795.26 1346.4C800.793 1339 806.226 1335.3 811.56 1335.3C815.76 1335.3 818.526 1337.77 819.86 1342.7C822.393 1336.57 824.726 1333.5 826.86 1333.5C827.66 1333.5 828.06 1334.17 828.06 1335.5C828.06 1338.17 826.826 1341.73 824.36 1346.2C823.826 1347.07 823.16 1348.13 822.36 1349.4C821.626 1350.67 820.793 1352.17 819.86 1353.9L816.46 1362.2C815.793 1363.8 814.96 1365.83 813.96 1368.3C812.96 1370.7 811.826 1373.53 810.56 1376.8C809.093 1380.8 807.726 1384.23 806.46 1387.1C805.26 1390.03 804.16 1392.43 803.16 1394.3C798.826 1402.03 794.46 1405.9 790.06 1405.9H789.66ZM796.06 1372.2C800.26 1372.2 806.46 1366.57 814.66 1355.3L817.56 1347.9C817.093 1347.57 816.76 1346.87 816.56 1345.8C815.96 1342.93 815.26 1341.03 814.46 1340.1C813.66 1339.17 812.593 1338.7 811.26 1338.7C809.726 1338.7 807.96 1339.4 805.96 1340.8C803.96 1342.2 802.06 1343.93 800.26 1346C798.46 1348 797.026 1349.97 795.96 1351.9C792.76 1357.37 791.16 1362.07 791.16 1366C791.16 1370.13 792.793 1372.2 796.06 1372.2ZM837.918 1375.7C834.851 1375.7 832.484 1374.77 830.818 1372.9C829.218 1370.97 828.418 1368.43 828.418 1365.3C828.418 1363.03 828.818 1360.3 829.618 1357.1C831.018 1351.7 833.384 1345.43 836.718 1338.3C839.318 1332.9 842.118 1327.6 845.118 1322.4C848.118 1317.13 851.418 1311.97 855.018 1306.9C860.751 1298.77 864.751 1294.7 867.018 1294.7C868.484 1294.7 869.218 1295.1 869.218 1295.9C869.218 1297.03 867.351 1299.87 863.618 1304.4L856.618 1312.9C850.551 1320.23 845.584 1327.73 841.718 1335.4C837.918 1343.07 834.951 1350.73 832.818 1358.4C832.218 1360.6 831.918 1362.67 831.918 1364.6C831.918 1369.67 833.984 1372.2 838.118 1372.2C839.584 1372.2 841.084 1371.77 842.618 1370.9C844.151 1370.1 844.984 1369.7 845.118 1369.7C845.918 1369.7 846.318 1370.27 846.318 1371.4C846.318 1372.4 845.951 1373.17 845.218 1373.7C842.951 1375.03 840.518 1375.7 837.918 1375.7ZM861.334 1374.8C858.534 1374.8 856.334 1373.83 854.734 1371.9C853.134 1369.97 852.334 1367.6 852.334 1364.8C852.334 1360 853.934 1355.07 857.134 1350C858.001 1348.6 859.001 1347.23 860.134 1345.9C861.267 1344.5 862.501 1343.17 863.834 1341.9C865.834 1339.97 867.934 1338.37 870.134 1337.1C872.334 1335.83 874.467 1335.2 876.534 1335.2C879.934 1335.2 881.634 1336.8 881.634 1340C881.634 1344 879.301 1347.63 874.634 1350.9C870.301 1353.83 866.034 1355.3 861.834 1355.3C861.101 1355.3 860.434 1355.27 859.834 1355.2C859.301 1355.07 858.801 1354.93 858.334 1354.8C857.667 1356.07 857.067 1357.7 856.534 1359.7C856.001 1361.7 855.734 1363.43 855.734 1364.9C855.734 1369.3 857.667 1371.5 861.534 1371.5C864.667 1371.5 867.634 1370.97 870.434 1369.9C873.234 1368.77 876.567 1366.67 880.434 1363.6C882.834 1361.73 884.634 1360.23 885.834 1359.1C887.034 1357.97 888.334 1356.77 889.734 1355.5C890.134 1355.23 890.501 1355.1 890.834 1355.1C891.167 1355.1 891.501 1355.2 891.834 1355.4C892.167 1355.6 892.334 1355.9 892.334 1356.3C892.334 1357.03 891.667 1358.07 890.334 1359.4C889.201 1360.47 888.001 1361.6 886.734 1362.8C885.467 1363.93 883.467 1365.53 880.734 1367.6C877.801 1369.87 874.601 1371.63 871.134 1372.9C867.667 1374.17 864.401 1374.8 861.334 1374.8ZM861.234 1352.1C863.367 1352.1 865.401 1351.77 867.334 1351.1C869.267 1350.43 871.101 1349.47 872.834 1348.2C876.701 1345.33 878.634 1342.63 878.634 1340.1C878.634 1338.97 877.934 1338.4 876.534 1338.4C873.867 1338.4 870.767 1340.03 867.234 1343.3C865.501 1344.9 864.067 1346.37 862.934 1347.7C861.867 1348.97 860.867 1350.37 859.934 1351.9C860.334 1352.03 860.767 1352.1 861.234 1352.1ZM888.19 1373C886.39 1373 885.49 1372.17 885.49 1370.5C885.49 1368.7 886.324 1367.8 887.99 1367.8C889.79 1367.8 890.69 1368.63 890.69 1370.3C890.69 1372.1 889.857 1373 888.19 1373Z" fill="white"/>
</svg>
