<svg width="32" height="25" viewBox="0 0 32 25" fill="none" xmlns="http://www.w3.org/2000/svg">
<path d="M10.2131 4.00001C11.3986 3.78653 12.1683 2.7239 11.937 1.62968C11.7058 0.535415 10.5608 -0.175595 9.37545 0.0378345C8.19059 0.25132 7.41286 1.30866 7.64467 2.40293C7.87595 3.4972 9.02886 4.2135 10.2131 4.00001Z" fill="#FFD95C"/>
<path d="M30.1688 16.8043C29.8221 16.204 29.2625 16.2055 28.9194 16.8075L28.4946 17.5528C28.1508 18.1547 27.2754 18.6428 26.5388 18.6428H25.5378C24.8005 18.6428 23.7676 19.0203 23.2302 19.4851L21.2928 21.1629C21.0655 21.3595 20.7537 21.5034 20.4197 21.5909C20.4654 21.5008 20.4854 21.3996 20.4614 21.2989L17.3824 2.8325L17.3693 2.79772C17.2802 2.56158 16.9953 2.42929 16.7326 2.51412C16.4962 2.59002 16.3785 2.81877 16.4088 3.04857L17.3584 8.73489L14.2555 8.58204L12.6646 5.42684C12.3968 4.89553 11.6665 4.48912 11.0326 4.51811L9.02089 4.68623C8.8405 4.69466 8.67085 4.74422 8.51672 4.81957C8.08045 4.76792 7.57795 4.93764 7.17935 5.12422C7.17075 5.10791 7.16108 5.09314 7.15194 5.07732C7.40549 4.7521 7.52253 4.33726 7.4329 3.91348C7.26104 3.10072 6.40509 2.56836 5.52453 2.72749C4.64404 2.8863 4.06791 3.67641 4.23977 4.48917C4.30826 4.81389 4.48932 5.09005 4.73367 5.29929C4.60916 5.47695 4.54581 5.67301 4.59316 5.86649C4.79589 6.69403 5.0197 7.8099 4.9112 8.37865C4.72734 9.35165 3.97416 11.7526 5.35602 11.7863C6.14461 11.8058 6.99143 11.6288 7.57389 11.4727L7.10966 21.5546C7.11139 21.6542 7.12453 21.748 7.14448 21.8408C7.16902 21.9578 7.21297 22.0664 7.26498 22.1697L6.56208 22.7026C5.99222 23.1338 4.96948 23.294 4.27799 23.0599L2.43817 22.4369C1.74667 22.2029 0.908994 22.5012 0.566948 23.1037L0.136941 23.8643C-0.205105 24.4672 0.115802 24.9554 0.852444 24.9554H29.8741C30.6107 24.9554 31.3257 24.4146 31.4701 23.7478L31.9475 21.5441C32.092 20.8772 31.9281 19.85 31.5809 19.2496L30.1688 16.8043ZM6.05617 5.2429C5.68385 5.30982 5.31959 5.19969 5.05971 4.97937C5.04658 4.96724 5.03057 4.95721 5.01743 4.94508C5.01057 4.93874 5.00543 4.93135 4.99976 4.92557C4.94948 4.87342 4.90326 4.81858 4.86385 4.75794C4.72107 4.53867 4.68512 4.27932 4.76108 4.02736C4.83698 3.7786 5.01403 3.56616 5.26071 3.42963C5.46285 3.31735 5.69986 3.28047 5.92594 3.32683C6.15488 3.37374 6.34621 3.49919 6.46385 3.68104C6.56208 3.83229 6.58716 4.01154 6.53521 4.18545C6.48325 4.35727 6.36161 4.50328 6.19262 4.59655C5.89793 4.75888 5.52053 4.67984 5.35154 4.41944C5.20763 4.19807 5.29326 3.90549 5.54281 3.76741C5.75581 3.64829 6.0299 3.70783 6.15267 3.89761C6.25944 4.06154 6.19609 4.27817 6.01216 4.37992C6.00356 4.38466 5.99503 4.38891 5.98649 4.39309C5.97221 4.39943 5.98075 4.39888 6.00416 4.3894C6.01784 4.38361 6.03157 4.37727 6.04525 4.36989C6.15088 4.31135 6.22684 4.22073 6.25885 4.11528C6.29026 4.01193 6.27539 3.90654 6.2183 3.81746C6.14121 3.69939 6.01557 3.6166 5.86425 3.58606C5.71007 3.55448 5.54848 3.57978 5.40857 3.65722C5.22584 3.75843 5.09453 3.91552 5.03857 4.09946C4.98375 4.28026 5.00943 4.4658 5.11107 4.62234C5.24298 4.82525 5.45765 4.96597 5.71634 5.01872C5.97783 5.07357 6.25138 5.0298 6.48833 4.89856C6.68079 4.79261 6.82978 4.6482 6.94001 4.48691C6.82476 4.8592 6.49645 5.16336 6.05617 5.2429ZM7.35527 5.62032C7.35067 5.59452 7.33927 5.57291 7.33359 5.54756C7.54027 5.44795 7.77154 5.35358 7.99141 5.29824C7.90064 5.4506 7.84236 5.61927 7.83556 5.79896L7.73852 7.90207L7.35527 5.62032ZM11.4346 21.6078L10.2868 21.2388C10.2612 21.2304 10.232 21.2267 10.2052 21.2193L10.5575 13.5115L14.6752 20.8355C14.7717 21.03 14.9162 21.1945 15.0886 21.3263L13.9693 21.6472C13.2648 21.8491 12.1307 21.8313 11.4346 21.6078ZM18.0591 21.2525C17.8353 21.1777 17.564 21.1276 17.2779 21.0965C17.5372 20.785 17.6594 20.3796 17.5715 19.9616C17.5492 19.8562 17.5143 19.7603 17.4732 19.6618L12.3243 10.321L12.3653 9.11556L12.7816 9.98367C13.1077 10.5376 13.7049 10.4923 13.7049 10.4923L17.372 10.6805C17.4456 10.68 17.5148 10.6742 17.5845 10.6615C17.6164 10.6558 17.6456 10.6441 17.6764 10.6362L19.4934 21.5166C19.4974 21.5282 19.4957 21.5419 19.498 21.5476C19.5168 21.5977 19.5483 21.6394 19.5819 21.6789C19.4003 21.6684 19.2239 21.6405 19.0651 21.5872L18.0591 21.2525Z" fill="#FFD95C"/>
</svg>
