<svg width="582" height="562" viewBox="0 0 582 562" fill="none" xmlns="http://www.w3.org/2000/svg">
<g filter="url(#filter0_d_10305_533)">
<path d="M291 268.075C324.427 268.075 356.485 254.796 380.122 231.159C403.759 207.523 417.038 175.465 417.038 142.038C417.038 108.61 403.759 76.5521 380.122 52.9155C356.485 29.2789 324.427 16 291 16C257.573 16 225.515 29.2789 201.878 52.9155C178.241 76.5521 164.962 108.61 164.962 142.038C164.962 175.465 178.241 207.523 201.878 231.159C225.515 254.796 257.573 268.075 291 268.075ZM291 323.45C123.425 323.45 16 415.925 16 460.95V545.025H566V460.95C566 406.5 464.3 323.45 291 323.45Z" fill="#08CEFF"/>
</g>
<defs>
<filter id="filter0_d_10305_533" x="0" y="0" width="582" height="561.025" filterUnits="userSpaceOnUse" color-interpolation-filters="sRGB">
<feFlood flood-opacity="0" result="BackgroundImageFix"/>
<feColorMatrix in="SourceAlpha" type="matrix" values="0 0 0 0 0 0 0 0 0 0 0 0 0 0 0 0 0 0 127 0" result="hardAlpha"/>
<feOffset/>
<feGaussianBlur stdDeviation="8"/>
<feComposite in2="hardAlpha" operator="out"/>
<feColorMatrix type="matrix" values="0 0 0 0 0.0313726 0 0 0 0 0.807843 0 0 0 0 1 0 0 0 1 0"/>
<feBlend mode="normal" in2="BackgroundImageFix" result="effect1_dropShadow_10305_533"/>
<feBlend mode="normal" in="SourceGraphic" in2="effect1_dropShadow_10305_533" result="shape"/>
</filter>
</defs>
</svg>
