<svg width="783" height="833" viewBox="0 0 783 833" fill="none" xmlns="http://www.w3.org/2000/svg">
<g filter="url(#filter0_d_10305_535)">
<path d="M182.797 351.031L17.875 594.609C13.0625 602.422 18.0313 612.578 27.1406 613.578L352.547 648.063L182.797 351.031ZM27.5781 507.859L145.219 316.688L25.4687 244.844C21.2969 242.344 16 245.344 16 250.203V504.594C16 510.891 24.2656 513.234 27.5781 507.859ZM44.5156 676.875L348.266 813.844C356.547 817.672 366 811.609 366 802.5V699.891L47.9531 665.047C41 664.266 38.2187 673.781 44.5156 676.875ZM171.422 274.094L296.312 50.75C303.094 39.7187 290.703 26.9219 279.469 33.3437L43.8281 187.422C39.9687 189.953 40.0938 195.641 44.0313 198.016L171.422 274.094ZM391 290H561.641L412.297 26.9062C407.406 18.9687 399.203 15 391 15C382.797 15 374.594 18.9687 369.703 26.9062L220.359 290H391ZM756.531 244.844L636.781 316.703L754.422 507.875C757.719 513.25 766 510.906 766 504.594V250.203C766 245.344 760.703 242.344 756.531 244.844ZM610.578 274.094L737.969 198C741.922 195.625 742.031 189.937 738.172 187.406L502.531 33.3437C491.297 26.9219 478.906 39.7187 485.688 50.75L610.578 274.094ZM734.047 665.047L416 699.875V802.484C416 811.609 425.453 817.656 433.734 813.828L737.484 676.859C743.781 673.781 741 664.266 734.047 665.047ZM599.203 351.031L429.469 648.063L754.875 613.578C763.984 612.562 768.953 602.422 764.141 594.609L599.203 351.031ZM391 340H234.078L391 614.609L547.922 340H391Z" fill="#08CEFF"/>
</g>
<defs>
<filter id="filter0_d_10305_535" x="0" y="0" width="782.011" height="832.01" filterUnits="userSpaceOnUse" color-interpolation-filters="sRGB">
<feFlood flood-opacity="0" result="BackgroundImageFix"/>
<feColorMatrix in="SourceAlpha" type="matrix" values="0 0 0 0 0 0 0 0 0 0 0 0 0 0 0 0 0 0 127 0" result="hardAlpha"/>
<feOffset dy="1"/>
<feGaussianBlur stdDeviation="8"/>
<feComposite in2="hardAlpha" operator="out"/>
<feColorMatrix type="matrix" values="0 0 0 0 0.0313726 0 0 0 0 0.807843 0 0 0 0 1 0 0 0 1 0"/>
<feBlend mode="normal" in2="BackgroundImageFix" result="effect1_dropShadow_10305_535"/>
<feBlend mode="normal" in="SourceGraphic" in2="effect1_dropShadow_10305_535" result="shape"/>
</filter>
</defs>
</svg>
