<svg width="200" height="214" viewBox="0 0 200 214" fill="none" xmlns="http://www.w3.org/2000/svg">
<path d="M44.4785 90.273L0.499993 155.226C-0.783322 157.31 0.541659 160.018 2.97079 160.285L89.7445 169.48L44.4785 90.273ZM3.08745 132.093L34.4578 81.1148L2.52496 61.9568C1.41248 61.2901 0 62.0901 0 63.3859V131.222C0 132.902 2.20413 133.527 3.08745 132.093ZM7.60406 177.163L88.6029 213.688C90.8112 214.709 93.332 213.092 93.332 210.663V183.301L8.52071 174.009C6.66657 173.801 5.92491 176.338 7.60406 177.163ZM41.4452 69.7567L74.7489 10.1992C76.5572 7.25759 73.2531 3.84514 70.2573 5.55761L7.42073 46.6445C6.39157 47.3195 6.42491 48.8361 7.47489 49.4695L41.4452 69.7567ZM99.9985 73.9983H145.502L105.678 3.84097C104.373 1.72433 102.186 0.666016 99.9985 0.666016C97.8111 0.666016 95.6236 1.72433 94.3195 3.84097L54.495 73.9983H99.9985ZM197.472 61.9568L165.539 81.119L196.91 132.097C197.789 133.531 199.997 132.906 199.997 131.222V63.3859C199.997 62.0901 198.585 61.2901 197.472 61.9568ZM158.552 69.7567L192.522 49.4653C193.576 48.832 193.606 47.3153 192.576 46.6403L129.74 5.55761C126.744 3.84514 123.44 7.25759 125.248 10.1992L158.552 69.7567ZM191.476 174.009L106.665 183.297V210.659C106.665 213.092 109.186 214.705 111.394 213.684L192.393 177.159C194.072 176.338 193.331 173.801 191.476 174.009ZM155.519 90.273L110.257 169.48L197.03 160.285C199.46 160.014 200.785 157.31 199.501 155.226L155.519 90.273ZM99.9985 87.3314H58.1533L99.9985 160.56L141.844 87.3314H99.9985Z" fill="#086400"/>
</svg>
