<svg width="200" height="214" viewBox="0 0 200 214" fill="none" xmlns="http://www.w3.org/2000/svg">
<path d="M44.4785 89.94L0.499993 154.893C-0.783322 156.977 0.541659 159.685 2.97079 159.952L89.7445 169.147L44.4785 89.94ZM3.08745 131.76L34.4578 80.7818L2.52496 61.6238C1.41248 60.9571 0 61.7571 0 63.0529V130.889C0 132.569 2.20413 133.194 3.08745 131.76ZM7.60406 176.83L88.6029 213.355C90.8112 214.376 93.332 212.759 93.332 210.33V182.968L8.52071 173.676C6.66657 173.468 5.92491 176.005 7.60406 176.83ZM41.4452 69.4237L74.7489 9.8662C76.5572 6.92458 73.2531 3.51213 70.2573 5.2246L7.42073 46.3115C6.39157 46.9865 6.42491 48.5031 7.47489 49.1365L41.4452 69.4237ZM99.9985 73.6653H145.502L105.678 3.50796C104.373 1.39133 102.186 0.333008 99.9985 0.333008C97.8111 0.333008 95.6236 1.39133 94.3195 3.50796L54.495 73.6653H99.9985ZM197.472 61.6238L165.539 80.786L196.91 131.764C197.789 133.198 199.997 132.573 199.997 130.889V63.0529C199.997 61.7571 198.585 60.9571 197.472 61.6238ZM158.552 69.4237L192.522 49.1323C193.576 48.499 193.606 46.9823 192.576 46.3073L129.74 5.2246C126.744 3.51213 123.44 6.92458 125.248 9.8662L158.552 69.4237ZM191.476 173.676L106.665 182.964V210.326C106.665 212.759 109.186 214.372 111.394 213.351L192.393 176.826C194.072 176.005 193.331 173.468 191.476 173.676ZM155.519 89.94L110.257 169.147L197.03 159.952C199.46 159.681 200.785 156.977 199.501 154.893L155.519 89.94ZM99.9985 86.9984H58.1533L99.9985 160.227L141.844 86.9984H99.9985Z" fill="#006997"/>
</svg>
