<svg width="200" height="214" viewBox="0 0 200 214" fill="none" xmlns="http://www.w3.org/2000/svg">
<path d="M44.4785 89.607L0.499993 154.56C-0.783322 156.644 0.541659 159.352 2.97079 159.619L89.7445 168.814L44.4785 89.607ZM3.08745 131.427L34.4578 80.4488L2.52496 61.2908C1.41248 60.6241 0 61.4241 0 62.7199V130.556C0 132.236 2.20413 132.861 3.08745 131.427ZM7.60406 176.497L88.6029 213.022C90.8112 214.043 93.332 212.426 93.332 209.997V182.635L8.52071 173.343C6.66657 173.135 5.92491 175.672 7.60406 176.497ZM41.4452 69.0907L74.7489 9.53319C76.5572 6.59157 73.2531 3.17912 70.2573 4.8916L7.42073 45.9785C6.39157 46.6535 6.42491 48.1701 7.47489 48.8035L41.4452 69.0907ZM99.9985 73.3323H145.502L105.678 3.17495C104.373 1.05832 102.186 0 99.9985 0C97.8111 0 95.6236 1.05832 94.3195 3.17495L54.495 73.3323H99.9985ZM197.472 61.2908L165.539 80.453L196.91 131.431C197.789 132.865 199.997 132.24 199.997 130.556V62.7199C199.997 61.4241 198.585 60.6241 197.472 61.2908ZM158.552 69.0907L192.522 48.7993C193.576 48.166 193.606 46.6493 192.576 45.9743L129.74 4.8916C126.744 3.17912 123.44 6.59157 125.248 9.53319L158.552 69.0907ZM191.476 173.343L106.665 182.631V209.993C106.665 212.426 109.186 214.039 111.394 213.018L192.393 176.493C194.072 175.672 193.331 173.135 191.476 173.343ZM155.519 89.607L110.257 168.814L197.03 159.619C199.46 159.348 200.785 156.644 199.501 154.56L155.519 89.607ZM99.9985 86.6654H58.1533L99.9985 159.894L141.844 86.6654H99.9985Z" fill="#980000"/>
</svg>
