<svg width="201" height="214" viewBox="0 0 201 214" fill="none" xmlns="http://www.w3.org/2000/svg">
<path d="M44.9785 89.607L0.999993 154.56C-0.283322 156.644 1.04166 159.352 3.47079 159.618L90.2445 168.814L44.9785 89.607ZM3.58746 131.427L34.9578 80.4488L3.02496 61.2908C1.91248 60.6241 0.5 61.4241 0.5 62.7199V130.556C0.5 132.236 2.70413 132.861 3.58746 131.427ZM8.10406 176.497L89.1029 213.022C91.3112 214.043 93.832 212.426 93.832 209.997V182.635L9.02071 173.343C7.16657 173.135 6.42491 175.672 8.10406 176.497ZM41.9452 69.0907L75.2489 9.53319C77.0572 6.59157 73.7531 3.17912 70.7573 4.8916L7.92072 45.9785C6.89157 46.6535 6.92491 48.1701 7.97489 48.8035L41.9452 69.0907ZM100.499 73.3323H146.002L106.178 3.17495C104.873 1.05832 102.686 0 100.499 0C98.3111 0 96.1236 1.05832 94.8195 3.17495L54.995 73.3323H100.499ZM197.972 61.2908L166.039 80.453L197.41 131.431C198.289 132.865 200.497 132.24 200.497 130.556V62.7199C200.497 61.4241 199.085 60.6241 197.972 61.2908ZM159.052 69.0907L193.022 48.7993C194.076 48.166 194.106 46.6493 193.076 45.9743L130.24 4.8916C127.244 3.17912 123.94 6.59157 125.748 9.53319L159.052 69.0907ZM191.976 173.343L107.165 182.631V209.993C107.165 212.426 109.686 214.039 111.894 213.018L192.893 176.493C194.572 175.672 193.831 173.135 191.976 173.343ZM156.019 89.607L110.757 168.814L197.53 159.618C199.96 159.348 201.285 156.644 200.001 154.56L156.019 89.607ZM100.499 86.6654H58.6533L100.499 159.893L142.344 86.6654H100.499Z" fill="white"/>
</svg>
