<svg width="24" height="30" viewBox="0 0 24 30" fill="none" xmlns="http://www.w3.org/2000/svg">
<path d="M20.146 20.8105C22.516 18.6183 24 15.4825 24 12C24 5.37273 18.6273 0 12 0C5.37273 0 0 5.37273 0 12C0 15.4835 1.48498 18.6193 3.85498 20.8115L3.6444 20.8254C2.0154 23.6355 3.32555 25.8873 5.18401 28.0447C4.74199 26.2299 4.45195 24.3745 5.62602 22.1684C5.85548 22.3124 6.0889 22.4485 6.32828 22.5776C5.61808 25.191 6.42761 27.3683 8.01192 29.2158C7.75764 27.5371 7.68512 25.6677 8.50956 23.4845C8.71418 23.5471 8.92078 23.6027 9.12938 23.6543C9.23963 25.8902 9.94487 27.9752 10.8706 30.0025C10.7882 28.0308 10.9292 26.0313 11.4358 23.9871C11.6225 23.996 11.8103 24.001 11.999 24.001C12.1897 24.001 12.3804 23.996 12.5692 23.9871C13.0767 26.0313 13.2178 28.0308 13.1343 30.0025C14.0601 27.9742 14.7663 25.8892 14.8756 23.6523C15.0842 23.6007 15.2908 23.5441 15.4944 23.4825C16.3198 25.6658 16.2473 27.5361 15.993 29.2158C17.5783 27.3683 18.3879 25.19 17.6757 22.5746C17.9141 22.4465 18.1485 22.3094 18.377 22.1654C19.554 24.3735 19.263 26.229 18.821 28.0447C20.6794 25.8873 21.9886 23.6355 20.3606 20.8254L20.143 20.8115L20.146 20.8105ZM4.52247 14.0372C4.52247 9.90613 7.87087 6.55774 12.002 6.55774C16.1331 6.55774 19.4815 9.90613 19.4815 14.0372C19.4815 18.1684 16.1321 21.5168 12.002 21.5168C7.87187 21.5168 4.52247 18.1684 4.52247 14.0372ZM13.5485 12.2712C12.299 12.2712 11.2858 11.258 11.2858 10.0084C11.2858 9.65781 11.3663 9.32506 11.5083 9.02905C9.40651 9.42041 7.81624 11.263 7.81624 13.478C7.81624 15.9781 9.84256 18.0045 12.3427 18.0045C14.8428 18.0045 16.8691 15.9781 16.8691 13.478C16.8691 12.3407 16.45 11.3017 15.7566 10.5071C15.5292 11.5173 14.6283 12.2722 13.5495 12.2722L13.5485 12.2712ZM12.1142 16.1977C11.3017 16.1977 10.6432 15.5391 10.6432 14.7266C10.6432 13.9141 11.3017 13.2555 12.1142 13.2555C12.9267 13.2555 13.5853 13.9141 13.5853 14.7266C13.5853 15.5391 12.9267 16.1977 12.1142 16.1977Z" fill="#979797"/>
</svg>
