<svg width="24" height="30" viewBox="0 0 24 30" fill="none" xmlns="http://www.w3.org/2000/svg">
<path d="M20.146 20.813C22.516 18.6208 24 15.485 24 12.0025C24 5.37524 18.6273 0.00250244 12 0.00250244C5.37273 0.00250244 0 5.37524 0 12.0025C0 15.486 1.48498 18.6218 3.85498 20.814L3.6444 20.8279C2.0154 23.638 3.32555 25.8898 5.18401 28.0472C4.74199 26.2325 4.45195 24.377 5.62602 22.1709C5.85548 22.3149 6.0889 22.451 6.32828 22.5801C5.61808 25.1935 6.42761 27.3708 8.01192 29.2183C7.75764 27.5396 7.68512 25.6702 8.50956 23.487C8.71418 23.5496 8.92078 23.6052 9.12938 23.6568C9.23963 25.8927 9.94487 27.9777 10.8706 30.005C10.7882 28.0333 10.9292 26.0338 11.4358 23.9896C11.6225 23.9985 11.8103 24.0035 11.999 24.0035C12.1897 24.0035 12.3804 23.9985 12.5692 23.9896C13.0767 26.0338 13.2178 28.0333 13.1343 30.005C14.0601 27.9767 14.7663 25.8918 14.8756 23.6548C15.0842 23.6032 15.2908 23.5466 15.4944 23.485C16.3198 25.6683 16.2473 27.5386 15.993 29.2183C17.5783 27.3708 18.3879 25.1925 17.6757 22.5771C17.9141 22.449 18.1485 22.3119 18.377 22.1679C19.554 24.376 19.263 26.2315 18.821 28.0472C20.6794 25.8898 21.9886 23.638 20.3606 20.8279L20.143 20.814L20.146 20.813ZM4.52247 14.0398C4.52247 9.90864 7.87087 6.56024 12.002 6.56024C16.1331 6.56024 19.4815 9.90864 19.4815 14.0398C19.4815 18.1709 16.1321 21.5193 12.002 21.5193C7.87187 21.5193 4.52247 18.1709 4.52247 14.0398ZM13.5485 12.2737C12.299 12.2737 11.2858 11.2605 11.2858 10.0109C11.2858 9.66031 11.3663 9.32756 11.5083 9.03156C9.40651 9.42291 7.81624 11.2655 7.81624 13.4805C7.81624 15.9806 9.84256 18.007 12.3427 18.007C14.8428 18.007 16.8691 15.9806 16.8691 13.4805C16.8691 12.3432 16.45 11.3042 15.7566 10.5096C15.5292 11.5198 14.6283 12.2747 13.5495 12.2747L13.5485 12.2737ZM12.1142 16.2002C11.3017 16.2002 10.6432 15.5416 10.6432 14.7291C10.6432 13.9166 11.3017 13.258 12.1142 13.258C12.9267 13.258 13.5853 13.9166 13.5853 14.7291C13.5853 15.5416 12.9267 16.2002 12.1142 16.2002Z" fill="#FFD95C"/>
</svg>
