<svg width="24" height="30" viewBox="0 0 24 30" fill="none" xmlns="http://www.w3.org/2000/svg">
<g clip-path="url(#clip0_10303_539)">
<path d="M20.146 20.8129C22.516 18.6207 24 15.4849 24 12.0024C24 5.37518 18.6273 0.00244141 12 0.00244141C5.37273 0.00244141 0 5.37518 0 12.0024C0 15.4859 1.48498 18.6217 3.85498 20.8139L3.6444 20.8278C2.0154 23.6379 3.32555 25.8897 5.18401 28.0471C4.74199 26.2324 4.45195 24.3769 5.62602 22.1708C5.85548 22.3148 6.0889 22.4509 6.32828 22.58C5.61808 25.1934 6.42761 27.3707 8.01192 29.2182C7.75764 27.5395 7.68512 25.6701 8.50956 23.4869C8.71418 23.5495 8.92078 23.6051 9.12938 23.6567C9.23963 25.8926 9.94487 27.9776 10.8706 30.0049C10.7882 28.0332 10.9292 26.0337 11.4358 23.9895C11.6225 23.9984 11.8103 24.0034 11.999 24.0034C12.1897 24.0034 12.3804 23.9984 12.5692 23.9895C13.0767 26.0337 13.2178 28.0332 13.1343 30.0049C14.0601 27.9766 14.7663 25.8917 14.8756 23.6547C15.0842 23.6031 15.2908 23.5465 15.4944 23.4849C16.3198 25.6682 16.2473 27.5385 15.993 29.2182C17.5783 27.3707 18.3879 25.1924 17.6757 22.577C17.9141 22.4489 18.1485 22.3118 18.377 22.1678C19.554 24.3759 19.263 26.2314 18.821 28.0471C20.6794 25.8897 21.9886 23.6379 20.3606 20.8278L20.143 20.8139L20.146 20.8129ZM4.52247 14.0397C4.52247 9.90858 7.87087 6.56018 12.002 6.56018C16.1331 6.56018 19.4815 9.90858 19.4815 14.0397C19.4815 18.1708 16.1321 21.5192 12.002 21.5192C7.87187 21.5192 4.52247 18.1708 4.52247 14.0397ZM13.5485 12.2736C12.299 12.2736 11.2858 11.2604 11.2858 10.0108C11.2858 9.66025 11.3663 9.3275 11.5083 9.0315C9.40651 9.42285 7.81624 11.2654 7.81624 13.4804C7.81624 15.9805 9.84256 18.0069 12.3427 18.0069C14.8428 18.0069 16.8691 15.9805 16.8691 13.4804C16.8691 12.3431 16.45 11.3041 15.7566 10.5095C15.5292 11.5197 14.6283 12.2746 13.5495 12.2746L13.5485 12.2736ZM12.1142 16.2001C11.3017 16.2001 10.6432 15.5415 10.6432 14.729C10.6432 13.9165 11.3017 13.2579 12.1142 13.2579C12.9267 13.2579 13.5853 13.9165 13.5853 14.729C13.5853 15.5415 12.9267 16.2001 12.1142 16.2001Z" fill="#08CEFF"/>
</g>
<defs>
<clipPath id="clip0_10303_539">
<rect width="24" height="30" fill="white"/>
</clipPath>
</defs>
</svg>
