<svg width="40" height="40" viewBox="0 0 40 40" fill="none" xmlns="http://www.w3.org/2000/svg">
<path d="M2.28308 0H37.7169C38.918 0 40 1.08196 40 2.28308V37.7169C40 38.918 38.918 40 37.7169 40H2.28308C1.08196 40 0 38.918 0 37.7169V2.28308C0 1.08196 1.08196 0 2.28308 0ZM28.4059 22.4599H33.931L34.1712 17.175H28.4059V13.2718C28.4059 11.7709 28.7057 10.9292 30.6275 10.9292H33.9906L34.1117 6.00365C34.1117 6.00365 32.6107 5.76343 30.4487 5.76343C25.1638 5.76343 22.8212 9.06697 22.8212 12.6107V17.175H18.918V22.4599H22.8212V37.1135H28.4059V22.4599Z" fill="#08CEFF"/>
</svg>
