<svg width="40" height="41" viewBox="0 0 40 41" fill="none" xmlns="http://www.w3.org/2000/svg">
<path d="M2.28308 0.5H37.7169C38.918 0.5 40 1.58196 40 2.78308V38.2169C40 39.418 38.918 40.5 37.7169 40.5H2.28308C1.08196 40.5 0 39.418 0 38.2169V2.78308C0 1.58196 1.08196 0.5 2.28308 0.5ZM28.4059 22.9599H33.931L34.1712 17.675H28.4059V13.7718C28.4059 12.2709 28.7057 11.4292 30.6275 11.4292H33.9906L34.1117 6.50365C34.1117 6.50365 32.6107 6.26343 30.4487 6.26343C25.1638 6.26343 22.8212 9.56697 22.8212 13.1107V17.675H18.918V22.9599H22.8212V37.6135H28.4059V22.9599Z" fill="#FFD95C"/>
</svg>
