<svg width="32" height="37" viewBox="0 0 32 37" fill="none" xmlns="http://www.w3.org/2000/svg">
<path d="M31.4206 27.7341C30.7379 26.1298 29.6027 24.6941 28.8583 23.8537C29.3469 23.4969 29.6652 22.9304 29.6652 22.2915V20.7761C29.6652 19.6986 28.7641 18.822 27.6569 18.822H18.6429C17.5353 18.822 16.6344 19.6986 16.6344 20.7761V22.2915C16.6344 22.9305 16.9525 23.497 17.4414 23.8538C16.6971 24.6941 15.5618 26.1299 14.8792 27.7341H31.4206Z" fill="#FFD95C"/>
<path d="M31.9469 29.5423H14.3528C14.3183 29.7839 14.2996 30.0257 14.2996 30.2666C14.2996 33.7537 18.3637 36.4985 18.5367 36.6138C18.6479 36.6878 18.7788 36.7274 18.9123 36.7274H27.3875C27.5212 36.7274 27.6519 36.6878 27.7631 36.6138C27.9362 36.4985 32 33.7537 32 30.2666C32.0002 30.0257 31.9814 29.7839 31.9469 29.5423Z" fill="#FFD95C"/>
<path d="M12.6862 12.2551L11.3969 11.6783L12.3645 8.16993C12.3945 8.06099 12.3968 7.94618 12.3713 7.83611C11.2293 2.9294 9.06135 0 6.57167 0C4.77586 0 3.1187 1.5342 1.90533 4.31997C0.777623 6.90933 0.101155 10.391 0.000239019 14.1238C-0.0026992 14.2347 0.0214845 14.3447 0.0709821 14.4442L1.63389 17.5854L0.48188 18.4197C0.283777 18.5632 0.178227 18.8023 0.205914 19.0453C0.627435 22.7573 2.54519 25.8572 4.0856 27.8101V15.1051C4.0856 13.7342 5.20088 12.619 6.57178 12.619C7.94269 12.619 9.05796 13.7342 9.05796 15.1051V27.38C10.8355 24.7095 13.158 20.2385 13.158 15.1051C13.158 14.3457 13.1338 13.5805 13.086 12.8308C13.0699 12.5795 12.9161 12.3579 12.6862 12.2551Z" fill="#FFD95C"/>
<path d="M6.57173 14.4271C6.19733 14.4271 5.89368 14.7307 5.89368 15.1051V36.0496C5.89368 36.4241 6.19733 36.7277 6.57173 36.7277C6.94612 36.7277 7.24978 36.4241 7.24978 36.0496V15.1051C7.24978 14.7307 6.94624 14.4271 6.57173 14.4271Z" fill="#FFD95C"/>
</svg>
