<svg width="40" height="36" viewBox="0 0 40 36" fill="none" xmlns="http://www.w3.org/2000/svg">
<path fill-rule="evenodd" clip-rule="evenodd" d="M13.1265 0.000226443C13.1954 0.000359776 13.2643 0.000470689 13.3333 0.000470689C13.4024 0.000470689 13.4713 0.000359776 13.5402 0.000226443C14.3596 -0.00112911 15.1649 -0.00246307 15.8822 0.189759C17.7996 0.70347 19.2969 2.20096 19.8107 4.11814C20.0029 4.83556 20.0016 5.64092 20.0002 6.46029C20.0002 6.52916 20 6.59811 20 6.66714H37.7778C39.0051 6.66714 40 7.66205 40 8.88936C40 10.1166 39.0051 11.1116 37.7778 11.1116H20C20 11.1806 20.0002 11.2496 20.0002 11.3184C20.0016 12.1378 20.0029 12.9432 19.8107 13.6607C19.2969 15.5778 17.7996 17.0753 15.8822 17.5889C15.1649 17.7811 14.3596 17.7798 13.5402 17.7784C13.4713 17.7784 13.4024 17.7782 13.3333 17.7782C13.2643 17.7782 13.1954 17.7784 13.1265 17.7784C12.3071 17.7798 11.5018 17.7811 10.7843 17.5889C8.86716 17.0753 7.36967 15.5778 6.85598 13.6607C6.66373 12.9431 6.66507 12.1378 6.66644 11.3184C6.66656 11.2496 6.66667 11.1806 6.66667 11.1116H2.22222C0.994933 11.1116 0 10.1166 0 8.88936C0 7.66205 0.994933 6.66714 2.22222 6.66714H6.66667C6.66667 6.59811 6.66656 6.52916 6.66644 6.46029C6.66507 5.64092 6.66373 4.83556 6.85598 4.11814C7.36967 2.20096 8.86716 0.70347 10.7843 0.189759C11.5018 -0.00246307 12.3071 -0.00112911 13.1265 0.000226443ZM12.2191 4.4568C11.9821 4.4676 11.9263 4.485 11.9346 4.48276C11.5512 4.58551 11.2517 4.885 11.149 5.26845C11.1471 5.27625 11.1325 5.34452 11.123 5.55292C11.1116 5.80187 11.1111 6.13034 11.1111 6.66714V11.1116C11.1111 11.6484 11.1116 11.9768 11.123 12.2258C11.1338 12.4628 11.1512 12.5186 11.149 12.5103C11.2517 12.8937 11.5512 13.1932 11.9346 13.2959C11.9263 13.2937 11.9821 13.3111 12.2191 13.3219C12.4681 13.3333 12.7965 13.3338 13.3333 13.3338C13.8702 13.3338 14.1987 13.3333 14.4476 13.3219C14.6844 13.3111 14.7402 13.2937 14.732 13.2959C15.1156 13.1932 15.4149 12.8937 15.5178 12.5103C15.5156 12.5186 15.5329 12.4628 15.5436 12.2258C15.5551 11.9768 15.5556 11.6484 15.5556 11.1116V6.66714C15.5556 6.13034 15.5551 5.80187 15.5436 5.55292C15.5329 5.31592 15.5156 5.26014 15.5178 5.26845M12.2191 4.4568C12.4681 4.44545 12.7965 4.44491 13.3333 4.44491L12.2191 4.4568ZM13.3333 4.44491C13.8702 4.44491 14.1987 4.44545 14.4476 4.4568L13.3333 4.44491ZM14.4476 4.4568C14.656 4.46629 14.7242 4.48089 14.732 4.48276L14.4476 4.4568ZM26.4598 17.778C26.5287 17.7782 26.5976 17.7782 26.6667 17.7782C26.7358 17.7782 26.8047 17.7782 26.8736 17.778C27.6929 17.7767 28.4982 17.7753 29.2156 17.9676C31.1329 18.4813 32.6302 19.9787 33.144 21.896C33.3362 22.6133 33.3349 23.4187 33.3336 24.238C33.3336 24.3069 33.3333 24.3758 33.3333 24.4449H37.7778C39.0051 24.4449 40 25.4398 40 26.6671C40 27.8944 39.0051 28.8893 37.7778 28.8893H33.3333C33.3333 28.9584 33.3336 29.0273 33.3336 29.0962C33.3349 29.9156 33.3362 30.7209 33.144 31.4384C32.6302 33.3556 31.1329 34.8531 29.2156 35.3667C28.4982 35.5589 27.6929 35.5576 26.8736 35.5562C26.8047 35.5562 26.7358 35.556 26.6667 35.556C26.5976 35.556 26.5287 35.5562 26.4598 35.5562C25.6404 35.5576 24.8351 35.5589 24.1178 35.3667C22.2004 34.8531 20.7031 33.3556 20.1893 31.4384C19.9971 30.7209 19.9984 29.9156 19.9998 29.0962C19.9998 29.0273 20 28.9584 20 28.8893H2.22222C0.994933 28.8893 0 27.8944 0 26.6671C0 25.4398 0.994933 24.4449 2.22222 24.4449H20C20 24.376 19.9998 24.3069 19.9998 24.238C19.9984 23.4187 19.9971 22.6133 20.1893 21.896C20.7031 19.9787 22.2004 18.4813 24.1178 17.9676C24.8351 17.7753 25.6404 17.7767 26.4598 17.778ZM25.5524 22.2347C25.3156 22.2453 25.2598 22.2627 25.268 22.2605C24.8844 22.3633 24.5851 22.6629 24.4822 23.0462C24.4844 23.038 24.4671 23.0938 24.4564 23.3307C24.4449 23.5796 24.4444 23.9082 24.4444 24.4449V28.8893C24.4444 29.4262 24.4449 29.7547 24.4564 30.0036C24.4671 30.2407 24.4844 30.2965 24.4822 30.288C24.5851 30.6716 24.8844 30.9709 25.268 31.0738C25.2598 31.0716 25.3156 31.0889 25.5524 31.0998C25.8013 31.1111 26.1298 31.1116 26.6667 31.1116C27.2036 31.1116 27.532 31.1111 27.7809 31.0998C28.0178 31.0889 28.0736 31.0716 28.0653 31.0738C28.4489 30.9709 28.7482 30.6716 28.8511 30.288C28.8489 30.2965 28.8662 30.2407 28.8769 30.0036C28.8884 29.7547 28.8889 29.4262 28.8889 28.8893V24.4449C28.8889 23.9082 28.8884 23.5796 28.8769 23.3307C28.8662 23.0938 28.8489 23.038 28.8511 23.0462C28.7482 22.6629 28.4489 22.3633 28.0653 22.2605C28.0736 22.2627 28.0178 22.2453 27.7809 22.2347C27.532 22.2231 27.2036 22.2227 26.6667 22.2227C26.1298 22.2227 25.8013 22.2231 25.5524 22.2347Z" fill="#FF33CC"/>
</svg>
