<svg width="40" height="41" viewBox="0 0 40 41" fill="none" xmlns="http://www.w3.org/2000/svg">
<path fill-rule="evenodd" clip-rule="evenodd" d="M20 0.499969C31.046 0.499969 40 9.67983 40 21.0058C40 30.0638 34.276 37.7479 26.334 40.4619C25.32 40.6639 24.96 40.0235 24.96 39.4775C24.96 38.8015 24.984 36.5936 24.984 33.8496C24.984 31.9376 24.344 30.6897 23.626 30.0537C28.08 29.5457 32.76 27.8115 32.76 19.9355C32.76 17.6955 31.984 15.8676 30.7 14.4316C30.908 13.9136 31.594 11.8279 30.504 9.00388C30.504 9.00388 28.828 8.45441 25.01 11.1064C23.412 10.6524 21.7 10.424 20 10.416C18.3 10.424 16.59 10.6524 14.994 11.1064C11.172 8.45441 9.492 9.00388 9.492 9.00388C8.406 11.8279 9.092 13.9136 9.298 14.4316C8.02 15.8676 7.23801 17.6955 7.23801 19.9355C7.23801 27.7915 11.908 29.5523 16.35 30.0703C15.778 30.5823 15.26 31.4855 15.08 32.8115C13.94 33.3355 11.044 34.2424 9.25999 31.1084C9.25999 31.1084 8.202 29.1381 6.194 28.9941C6.194 28.9941 4.244 28.9682 6.058 30.2402C6.058 30.2402 7.368 30.8702 8.278 33.2402C8.278 33.2402 9.45201 36.9001 15.016 35.6601C15.026 37.3741 15.044 38.9895 15.044 39.4775C15.044 40.0195 14.676 40.6538 13.678 40.4638C5.72999 37.7538 0 30.0658 0 21.0058C0 9.67983 8.956 0.499969 20 0.499969Z" fill="#08CEFF"/>
</svg>
