<svg width="66" height="65" viewBox="0 0 66 65" fill="none" xmlns="http://www.w3.org/2000/svg">
<path d="M33 0C15.125 0 0.5 14.625 0.5 32.5C0.5 50.375 15.125 65 33 65C50.875 65 65.5 50.375 65.5 32.5C65.5 14.625 50.875 0 33 0ZM46.2321 29.4821L34.625 41.0893C34.1607 41.5536 33.6964 41.7857 33 41.7857C32.3036 41.7857 31.8393 41.5536 31.375 41.0893L19.7679 29.4821C18.8393 28.5536 18.8393 27.1607 19.7679 26.2321C20.6964 25.3036 22.0893 25.3036 23.0179 26.2321L33 36.2143L42.9821 26.2321C43.9107 25.3036 45.3036 25.3036 46.2321 26.2321C47.1607 27.1607 47.1607 28.5536 46.2321 29.4821Z" fill="#FFD95C"/>
</svg>
