<svg width="40" height="41" viewBox="0 0 40 41" fill="none" xmlns="http://www.w3.org/2000/svg">
<path fill-rule="evenodd" clip-rule="evenodd" d="M11.7393 0.745458C8.48355 0.892358 5.66163 1.68835 3.38299 3.95737C1.09639 6.23831 0.310283 9.07141 0.163017 12.2933C0.0714728 14.3043 -0.463828 29.4966 1.08843 33.4808C2.13521 36.1687 4.19688 38.2354 6.90936 39.2855C8.17504 39.7778 9.61988 40.1111 11.7393 40.2084C29.4609 41.0103 36.0302 40.5737 38.8004 33.4808C39.2919 32.2183 39.6302 30.7747 39.7238 28.6605C40.5337 10.8934 39.5924 7.04229 36.5038 3.95737C34.0541 1.51365 31.1724 -0.149842 11.7393 0.745458ZM11.9025 36.6351C9.96214 36.5477 8.9094 36.2244 8.2069 35.9525C6.43971 35.2656 5.11234 33.9437 4.42974 32.1869C3.24764 29.1595 3.6397 14.781 3.74517 12.4544C3.84866 10.1755 4.31035 8.09268 5.91833 6.48472C7.9084 4.49956 10.4796 3.52665 27.9863 4.31675C30.2709 4.41997 32.3585 4.88072 33.9705 6.48472C35.9605 8.46986 36.9476 11.0608 36.1436 28.5003C36.056 30.4359 35.7317 31.4861 35.459 32.1869C33.658 36.8023 29.5146 37.443 11.9025 36.6351ZM28.1793 9.87925C28.1793 11.1934 29.248 12.2621 30.5674 12.2621C31.8869 12.2621 32.9575 11.1934 32.9575 9.87925C32.9575 8.56509 31.8869 7.49741 30.5674 7.49741C29.248 7.49741 28.1793 8.56509 28.1793 9.87925ZM9.72534 20.4759C9.72534 26.1058 14.3005 30.6703 19.9444 30.6703C25.5883 30.6703 30.1635 26.1058 30.1635 20.4759C30.1635 14.846 25.5883 10.2845 19.9444 10.2845C14.3005 10.2845 9.72534 14.846 9.72534 20.4759ZM13.3115 20.4759C13.3115 16.8233 16.2807 13.8597 19.9444 13.8597C23.6081 13.8597 26.5773 16.8233 26.5773 20.4759C26.5773 24.1306 23.6081 27.0951 19.9444 27.0951C16.2807 27.0951 13.3115 24.1306 13.3115 20.4759Z" fill="#FFD95C"/>
</svg>
