<svg width="40" height="40" viewBox="0 0 40 40" fill="none" xmlns="http://www.w3.org/2000/svg">
<path fill-rule="evenodd" clip-rule="evenodd" d="M11.7393 0.245458C8.48355 0.392358 5.66163 1.18835 3.38299 3.45737C1.09639 5.73831 0.310283 8.57141 0.163017 11.7933C0.0714728 13.8043 -0.463828 28.9966 1.08843 32.9808C2.13521 35.6687 4.19688 37.7354 6.90936 38.7855C8.17504 39.2778 9.61988 39.6111 11.7393 39.7084C29.4609 40.5103 36.0302 40.0737 38.8004 32.9808C39.2919 31.7183 39.6302 30.2747 39.7238 28.1605C40.5337 10.3934 39.5924 6.54229 36.5038 3.45737C34.0541 1.01365 31.1724 -0.649842 11.7393 0.245458ZM11.9025 36.1351C9.96214 36.0477 8.9094 35.7244 8.2069 35.4525C6.43971 34.7656 5.11234 33.4437 4.42974 31.6869C3.24764 28.6595 3.6397 14.281 3.74517 11.9544C3.84866 9.67548 4.31035 7.59268 5.91833 5.98472C7.9084 3.99956 10.4796 3.02665 27.9863 3.81675C30.2709 3.91997 32.3585 4.38072 33.9705 5.98472C35.9605 7.96986 36.9476 10.5608 36.1436 28.0003C36.056 29.9359 35.7317 30.9861 35.459 31.6869C33.658 36.3023 29.5146 36.943 11.9025 36.1351ZM28.1793 9.37925C28.1793 10.6934 29.248 11.7621 30.5674 11.7621C31.8869 11.7621 32.9575 10.6934 32.9575 9.37925C32.9575 8.06509 31.8869 6.99741 30.5674 6.99741C29.248 6.99741 28.1793 8.06509 28.1793 9.37925ZM9.72534 19.9759C9.72534 25.6058 14.3005 30.1703 19.9444 30.1703C25.5883 30.1703 30.1635 25.6058 30.1635 19.9759C30.1635 14.346 25.5883 9.78452 19.9444 9.78452C14.3005 9.78452 9.72534 14.346 9.72534 19.9759ZM13.3115 19.9759C13.3115 16.3233 16.2807 13.3597 19.9444 13.3597C23.6081 13.3597 26.5773 16.3233 26.5773 19.9759C26.5773 23.6306 23.6081 26.5951 19.9444 26.5951C16.2807 26.5951 13.3115 23.6306 13.3115 19.9759Z" fill="#08CEFF"/>
</svg>
