<svg width="40" height="40" viewBox="0 0 40 40" fill="none" xmlns="http://www.w3.org/2000/svg">
<path d="M36.7992 0.00358728H3.42492C2.99476 -0.0165609 2.56482 0.0483088 2.15975 0.19452C1.75469 0.340732 1.38244 0.565386 1.0643 0.855609C0.746183 1.14586 0.488414 1.496 0.305793 1.88596C0.123173 2.27595 0.0192496 2.69812 0 3.1283V36.5753C0.0251994 37.4755 0.39414 38.3321 1.03105 38.9688C1.66796 39.6058 2.52454 39.9748 3.42492 40H36.7992C37.6744 39.961 38.4996 39.5805 39.0979 38.9403C39.6961 38.3002 40.0196 37.4512 39.9991 36.5753V3.1283C40.0063 2.70959 39.9278 2.29385 39.7686 1.90654C39.6093 1.51925 39.3726 1.16856 39.0728 0.875957C38.7734 0.583384 38.4171 0.355106 38.0261 0.205095C37.6351 0.0550832 37.2176 -0.0134862 36.7992 0.00358728ZM12.4997 33.3506H6.67485V15.5272H12.4997V33.3506ZM9.72478 12.8274C9.31831 12.8416 8.91329 12.7715 8.5352 12.6217C8.15709 12.4719 7.81404 12.2455 7.52765 11.9567C7.24123 11.668 7.01761 11.3231 6.87087 10.9438C6.7241 10.5645 6.65737 10.159 6.67485 9.7527C6.65687 9.34198 6.72495 8.93207 6.87472 8.54923C7.02449 8.16636 7.25263 7.81905 7.5445 7.52955C7.83639 7.24003 8.18556 7.01472 8.56963 6.86808C8.95372 6.72142 9.36421 6.65668 9.77477 6.67798C10.1812 6.66383 10.5863 6.73385 10.9643 6.88368C11.3425 7.03352 11.6855 7.25992 11.9719 7.54867C12.2583 7.83742 12.4819 8.18226 12.6287 8.56155C12.7755 8.94084 12.8422 9.34638 12.8247 9.7527C12.8427 10.1634 12.7746 10.5733 12.6248 10.9562C12.4751 11.339 12.2469 11.6863 11.9551 11.9758C11.6632 12.2654 11.314 12.4907 10.9299 12.6373C10.5458 12.784 10.1353 12.8487 9.72478 12.8274ZM33.3492 33.3506H27.4994V23.6015C27.4994 21.2767 26.6744 19.6769 24.5994 19.6769C23.955 19.6824 23.3277 19.8871 22.8042 20.2631C22.2805 20.639 21.886 21.1677 21.6745 21.7767C21.512 22.2331 21.444 22.7178 21.4745 23.2015V33.3506H15.7246V15.5272H21.4745V18.027C21.9857 17.0878 22.7465 16.3084 23.673 15.7745C24.5994 15.2408 25.6554 14.9735 26.7244 15.0022C30.4993 15.0022 33.3492 17.5021 33.3492 22.8266V33.3506Z" fill="#FF33CC"/>
</svg>
