<svg width="40" height="41" viewBox="0 0 40 41" fill="none" xmlns="http://www.w3.org/2000/svg">
<path d="M36.7992 0.503587H3.42492C2.99476 0.483439 2.56482 0.548309 2.15975 0.69452C1.75469 0.840732 1.38244 1.06539 1.0643 1.35561C0.746183 1.64586 0.488414 1.996 0.305793 2.38596C0.123173 2.77595 0.0192496 3.19812 0 3.6283V37.0753C0.0251994 37.9755 0.39414 38.8321 1.03105 39.4688C1.66796 40.1058 2.52454 40.4748 3.42492 40.5H36.7992C37.6744 40.461 38.4996 40.0805 39.0979 39.4403C39.6961 38.8002 40.0196 37.9512 39.9991 37.0753V3.6283C40.0063 3.20959 39.9278 2.79385 39.7686 2.40654C39.6093 2.01925 39.3726 1.66856 39.0728 1.37596C38.7734 1.08338 38.4171 0.855106 38.0261 0.705095C37.6351 0.555083 37.2176 0.486514 36.7992 0.503587ZM12.4997 33.8506H6.67485V16.0272H12.4997V33.8506ZM9.72478 13.3274C9.31831 13.3416 8.91329 13.2715 8.5352 13.1217C8.15709 12.9719 7.81404 12.7455 7.52765 12.4567C7.24123 12.168 7.01761 11.8231 6.87087 11.4438C6.7241 11.0645 6.65737 10.659 6.67485 10.2527C6.65687 9.84198 6.72495 9.43207 6.87472 9.04923C7.02449 8.66636 7.25263 8.31905 7.5445 8.02955C7.83639 7.74003 8.18556 7.51472 8.56963 7.36808C8.95372 7.22142 9.36421 7.15668 9.77477 7.17798C10.1812 7.16383 10.5863 7.23385 10.9643 7.38368C11.3425 7.53352 11.6855 7.75992 11.9719 8.04867C12.2583 8.33742 12.4819 8.68226 12.6287 9.06155C12.7755 9.44084 12.8422 9.84638 12.8247 10.2527C12.8427 10.6634 12.7746 11.0733 12.6248 11.4562C12.4751 11.839 12.2469 12.1863 11.9551 12.4758C11.6632 12.7654 11.314 12.9907 10.9299 13.1373C10.5458 13.284 10.1353 13.3487 9.72478 13.3274ZM33.3492 33.8506H27.4994V24.1015C27.4994 21.7767 26.6744 20.1769 24.5994 20.1769C23.955 20.1824 23.3277 20.3871 22.8042 20.7631C22.2805 21.139 21.886 21.6677 21.6745 22.2767C21.512 22.7331 21.444 23.2178 21.4745 23.7015V33.8506H15.7246V16.0272H21.4745V18.527C21.9857 17.5878 22.7465 16.8084 23.673 16.2745C24.5994 15.7408 25.6554 15.4735 26.7244 15.5022C30.4993 15.5022 33.3492 18.0021 33.3492 23.3266V33.8506Z" fill="#FFD95C"/>
</svg>
