<svg width="16" height="16" viewBox="0 0 16 16" fill="none" xmlns="http://www.w3.org/2000/svg">
<path fill-rule="evenodd" clip-rule="evenodd" d="M2.16637 8.00192C2.16609 7.07052 2.38884 6.15259 2.816 5.32491C3.24316 4.49724 3.86229 3.78388 4.62162 3.24451C5.38096 2.70514 6.2584 2.35543 7.18058 2.22464C8.10275 2.09385 9.04283 2.18579 9.9222 2.49275C10.1309 2.56546 10.36 2.55227 10.559 2.45608C10.7581 2.35989 10.9107 2.18858 10.9834 1.97983C11.0562 1.77109 11.043 1.542 10.9468 1.34298C10.8506 1.14396 10.6793 0.991297 10.4705 0.918583C8.93498 0.382869 7.26691 0.360793 5.71773 0.855685C4.16854 1.35058 2.8222 2.33562 1.88161 3.66234C0.941026 4.98906 0.457172 6.58557 0.502977 8.21124C0.548782 9.8369 1.12176 11.4036 2.13556 12.6753C3.14936 13.9469 4.54903 14.8546 6.12362 15.2615C7.69822 15.6684 9.3624 15.5524 10.8653 14.9311C12.3683 14.3097 13.6286 13.2167 14.4562 11.8168C15.2838 10.4168 15.634 8.78573 15.4539 7.16942C15.4418 7.06064 15.4085 6.9553 15.3557 6.8594C15.303 6.76351 15.2319 6.67895 15.1464 6.61054C15.061 6.54214 14.9629 6.49123 14.8578 6.46072C14.7527 6.43022 14.6426 6.42071 14.5339 6.43275C14.4251 6.44479 14.3197 6.47813 14.2238 6.53088C14.128 6.58363 14.0434 6.65475 13.975 6.74018C13.9066 6.82561 13.8557 6.92368 13.8252 7.02878C13.7947 7.13389 13.7852 7.24397 13.7972 7.35275C13.885 8.14099 13.8111 8.93886 13.58 9.69758C13.349 10.4563 12.9657 11.1599 12.4535 11.7655C11.9413 12.371 11.311 12.8658 10.6011 13.2195C9.89121 13.5732 9.11666 13.7784 8.32477 13.8226C7.53289 13.8668 6.74031 13.749 5.99547 13.4765C5.25064 13.204 4.5692 12.7825 3.9928 12.2377C3.41639 11.6929 2.95714 11.0363 2.64311 10.308C2.32908 9.57972 2.16686 8.79503 2.16637 8.00192ZM14.458 3.55358C14.6043 3.38782 14.6788 3.17073 14.6651 2.95006C14.6513 2.72939 14.5505 2.52323 14.3847 2.37692C14.2189 2.23061 14.0018 2.15613 13.7812 2.16989C13.5605 2.18364 13.3543 2.28449 13.208 2.45025L7.84553 8.51692L5.19303 6.35608C5.10822 6.28692 5.01062 6.23514 4.90579 6.2037C4.80097 6.17225 4.69098 6.16177 4.5821 6.17283C4.36222 6.19518 4.16021 6.30396 4.02053 6.47525C3.95137 6.56006 3.89959 6.65767 3.86815 6.76249C3.83671 6.86731 3.82622 6.9773 3.83728 7.08618C3.85963 7.30607 3.96841 7.50807 4.1397 7.64775L7.41386 10.3144C7.58067 10.4501 7.79348 10.5161 8.0078 10.4986C8.22212 10.481 8.42136 10.3813 8.56386 10.2202L14.458 3.55358Z" fill="#FFD95C"/>
</svg>
