<svg width="15" height="15" viewBox="0 0 15 15" fill="none" xmlns="http://www.w3.org/2000/svg">
<g clip-path="url(#clip0_10348_22)">
<g filter="url(#filter0_d_10348_22)">
<path fill-rule="evenodd" clip-rule="evenodd" d="M1.66637 7.50192C1.66609 6.57052 1.88884 5.65259 2.316 4.82491C2.74316 3.99724 3.36229 3.28388 4.12162 2.74451C4.88096 2.20514 5.7584 1.85543 6.68058 1.72464C7.60275 1.59385 8.54283 1.68579 9.4222 1.99275C9.63094 2.06546 9.86003 2.05227 10.059 1.95608C10.2581 1.85989 10.4107 1.68858 10.4834 1.47983C10.5562 1.27109 10.543 1.042 10.4468 0.84298C10.3506 0.643957 10.1793 0.491297 9.97053 0.418583C8.43498 -0.117131 6.76691 -0.139207 5.21773 0.355685C3.66854 0.850577 2.3222 1.83562 1.38161 3.16234C0.441026 4.48906 -0.042828 6.08557 0.00297682 7.71124C0.0487817 9.3369 0.621763 10.9036 1.63556 12.1753C2.64936 13.4469 4.04903 14.3546 5.62362 14.7615C7.19822 15.1684 8.8624 15.0524 10.3653 14.4311C11.8683 13.8097 13.1286 12.7167 13.9562 11.3168C14.7838 9.91678 15.134 8.28573 14.9539 6.66942C14.9418 6.56064 14.9085 6.4553 14.8557 6.3594C14.803 6.26351 14.7319 6.17895 14.6464 6.11054C14.561 6.04214 14.4629 5.99123 14.3578 5.96072C14.2527 5.93022 14.1426 5.92071 14.0339 5.93275C13.9251 5.94479 13.8197 5.97813 13.7238 6.03088C13.628 6.08363 13.5434 6.15475 13.475 6.24018C13.4066 6.32561 13.3557 6.42368 13.3252 6.52878C13.2947 6.63389 13.2852 6.74397 13.2972 6.85275C13.385 7.64099 13.3111 8.43886 13.08 9.19758C12.849 9.9563 12.4657 10.6599 11.9535 11.2655C11.4413 11.871 10.811 12.3658 10.1011 12.7195C9.39121 13.0732 8.61666 13.2784 7.82477 13.3226C7.03289 13.3668 6.24031 13.249 5.49547 12.9765C4.75064 12.704 4.0692 12.2825 3.4928 11.7377C2.91639 11.1929 2.45714 10.5363 2.14311 9.80802C1.82908 9.07972 1.66686 8.29503 1.66637 7.50192ZM13.958 3.05358C14.1043 2.88782 14.1788 2.67073 14.1651 2.45006C14.1513 2.22939 14.0505 2.02323 13.8847 1.87692C13.7189 1.73061 13.5018 1.65613 13.2812 1.66989C13.0605 1.68364 12.8543 1.78449 12.708 1.95025L7.34553 8.01692L4.69303 5.85608C4.60822 5.78692 4.51062 5.73514 4.40579 5.7037C4.30097 5.67225 4.19098 5.66177 4.0821 5.67283C3.86222 5.69518 3.66021 5.80396 3.52053 5.97525C3.45137 6.06006 3.39959 6.15767 3.36815 6.26249C3.33671 6.36731 3.32622 6.4773 3.33728 6.58618C3.35963 6.80607 3.46841 7.00807 3.6397 7.14775L6.91386 9.81442C7.08067 9.95013 7.29348 10.0161 7.5078 9.99856C7.72212 9.98101 7.92136 9.88129 8.06386 9.72025L13.958 3.05358Z" fill="#FF33CC"/>
</g>
</g>
<defs>
<filter id="filter0_d_10348_22" x="-16" y="-16" width="47" height="47" filterUnits="userSpaceOnUse" color-interpolation-filters="sRGB">
<feFlood flood-opacity="0" result="BackgroundImageFix"/>
<feColorMatrix in="SourceAlpha" type="matrix" values="0 0 0 0 0 0 0 0 0 0 0 0 0 0 0 0 0 0 127 0" result="hardAlpha"/>
<feOffset/>
<feGaussianBlur stdDeviation="8"/>
<feComposite in2="hardAlpha" operator="out"/>
<feColorMatrix type="matrix" values="0 0 0 0 1 0 0 0 0 0.2 0 0 0 0 0.8 0 0 0 1 0"/>
<feBlend mode="normal" in2="BackgroundImageFix" result="effect1_dropShadow_10348_22"/>
<feBlend mode="normal" in="SourceGraphic" in2="effect1_dropShadow_10348_22" result="shape"/>
</filter>
<clipPath id="clip0_10348_22">
<rect width="15" height="15" fill="white"/>
</clipPath>
</defs>
</svg>
