<svg width="47" height="47" viewBox="0 0 47 47" fill="none" xmlns="http://www.w3.org/2000/svg">
<g filter="url(#filter0_d_8379_525)">
<path fill-rule="evenodd" clip-rule="evenodd" d="M17.6664 23.5019C17.6661 22.5705 17.8888 21.6526 18.316 20.8249C18.7432 19.9972 19.3623 19.2839 20.1216 18.7445C20.881 18.2051 21.7584 17.8554 22.6806 17.7246C23.6027 17.5939 24.5428 17.6858 25.4222 17.9927C25.6309 18.0655 25.86 18.0523 26.059 17.9561C26.2581 17.8599 26.4107 17.6886 26.4834 17.4798C26.5562 17.2711 26.543 17.042 26.4468 16.843C26.3506 16.644 26.1793 16.4913 25.9705 16.4186C24.435 15.8829 22.7669 15.8608 21.2177 16.3557C19.6685 16.8506 18.3222 17.8356 17.3816 19.1623C16.441 20.4891 15.9572 22.0856 16.003 23.7112C16.0488 25.3369 16.6218 26.9036 17.6356 28.1753C18.6494 29.4469 20.049 30.3546 21.6236 30.7615C23.1982 31.1684 24.8624 31.0524 26.3653 30.4311C27.8683 29.8097 29.1286 28.7167 29.9562 27.3168C30.7838 25.9168 31.134 24.2857 30.9539 22.6694C30.9418 22.5606 30.9085 22.4553 30.8557 22.3594C30.803 22.2635 30.7319 22.1789 30.6464 22.1105C30.561 22.0421 30.4629 21.9912 30.3578 21.9607C30.2527 21.9302 30.1426 21.9207 30.0339 21.9327C29.9251 21.9448 29.8197 21.9781 29.7238 22.0309C29.628 22.0836 29.5434 22.1548 29.475 22.2402C29.4066 22.3256 29.3557 22.4237 29.3252 22.5288C29.2947 22.6339 29.2852 22.744 29.2972 22.8527C29.385 23.641 29.3111 24.4389 29.08 25.1976C28.849 25.9563 28.4657 26.6599 27.9535 27.2655C27.4413 27.871 26.811 28.3658 26.1011 28.7195C25.3912 29.0732 24.6167 29.2784 23.8248 29.3226C23.0329 29.3668 22.2403 29.249 21.4955 28.9765C20.7506 28.704 20.0692 28.2825 19.4928 27.7377C18.9164 27.1929 18.4571 26.5363 18.1431 25.808C17.8291 25.0797 17.6669 24.295 17.6664 23.5019ZM29.958 19.0536C30.1043 18.8878 30.1788 18.6707 30.1651 18.4501C30.1513 18.2294 30.0505 18.0232 29.8847 17.8769C29.7189 17.7306 29.5018 17.6561 29.2812 17.6699C29.0605 17.6836 28.8543 17.7845 28.708 17.9502L23.3455 24.0169L20.693 21.8561C20.6082 21.7869 20.5106 21.7351 20.4058 21.7037C20.301 21.6723 20.191 21.6618 20.0821 21.6728C19.8622 21.6952 19.6602 21.804 19.5205 21.9752C19.4514 22.0601 19.3996 22.1577 19.3681 22.2625C19.3367 22.3673 19.3262 22.4773 19.3373 22.5862C19.3596 22.8061 19.4684 23.0081 19.6397 23.1477L22.9139 25.8144C23.0807 25.9501 23.2935 26.0161 23.5078 25.9986C23.7221 25.981 23.9214 25.8813 24.0639 25.7202L29.958 19.0536Z" fill="#08CEFF"/>
</g>
<defs>
<filter id="filter0_d_8379_525" x="0" y="0" width="47" height="47" filterUnits="userSpaceOnUse" color-interpolation-filters="sRGB">
<feFlood flood-opacity="0" result="BackgroundImageFix"/>
<feColorMatrix in="SourceAlpha" type="matrix" values="0 0 0 0 0 0 0 0 0 0 0 0 0 0 0 0 0 0 127 0" result="hardAlpha"/>
<feOffset/>
<feGaussianBlur stdDeviation="8"/>
<feComposite in2="hardAlpha" operator="out"/>
<feColorMatrix type="matrix" values="0 0 0 0 0.0313726 0 0 0 0 0.807843 0 0 0 0 1 0 0 0 1 0"/>
<feBlend mode="normal" in2="BackgroundImageFix" result="effect1_dropShadow_8379_525"/>
<feBlend mode="normal" in="SourceGraphic" in2="effect1_dropShadow_8379_525" result="shape"/>
</filter>
</defs>
</svg>
