<svg width="25" height="33" viewBox="0 0 25 33" fill="none" xmlns="http://www.w3.org/2000/svg">
<path d="M15.5219 16.2488C14.7126 15.7765 14.2578 15.1608 14.1333 14.3983C14.048 13.8711 14.1398 13.3412 14.3045 12.864C13.005 13.7961 11.4132 15.4466 11.4132 17.9347C11.4132 19.4331 12.6323 20.652 14.1306 20.652C15.629 20.652 16.848 19.4331 16.848 17.9347C16.848 16.9157 15.5349 16.2554 15.5219 16.2488Z" fill="#FFD95C"/>
<path d="M14.1304 9.23914C10.2348 9.23914 7.06519 12.4087 7.06519 16.3044C7.06519 20.2 10.2348 23.3696 14.1304 23.3696C18.026 23.3696 21.1956 20.2 21.1956 16.3044C21.1956 12.4087 18.026 9.23914 14.1304 9.23914ZM14.1304 21.7391C12.0326 21.7391 10.3261 20.0326 10.3261 17.9348C10.3261 13 15.35 10.9897 15.5641 10.9065C15.7957 10.8157 16.0609 10.8967 16.2049 11.1005C16.3489 11.3049 16.3348 11.5815 16.1706 11.7701C15.8511 12.1386 15.0537 13.2983 15.2065 14.2261C15.2777 14.6581 15.5489 15.007 16.0353 15.2919C16.0777 15.3103 17.9347 16.2331 17.9347 17.9348C17.9347 20.0325 16.2282 21.7391 14.1304 21.7391Z" fill="#FFD95C"/>
<path d="M11.9565 8.45552V3.80444H10.8359C10.5897 5.76799 9.0288 7.32886 7.06519 7.57511V12.255C8.12223 10.418 9.87114 9.0338 11.9565 8.45552Z" fill="#FFD95C"/>
<path d="M0 1.38915V3.26089H1.63041C1.9304 3.26089 2.17386 3.50435 2.17386 3.80434C2.17386 4.10432 1.9304 4.34778 1.63041 4.34778H0V28.2608H1.63041C1.9304 28.2608 2.17386 28.5042 2.17386 28.8042C2.17386 29.1042 1.9304 29.3477 1.63041 29.3477H0V31.2194C0 31.9857 0.622832 32.6085 1.38915 32.6085H3.26089V0H1.38915C0.622832 0 0 0.622833 0 1.38915Z" fill="#FFD95C"/>
<path d="M15.2174 3.80408H13.0435V8.15193H15.2174V3.80408Z" fill="#FFD95C"/>
<path d="M23.6109 0H4.3479V32.6087H23.6109C24.3772 32.6087 25.0001 31.9858 25.0001 31.2195V1.38915C25 0.622833 24.3772 0 23.6109 0ZM22.2826 25.5434C22.2826 25.8434 22.0392 26.0869 21.7392 26.0869C19.9408 26.0869 18.4783 27.5494 18.4783 29.3478C18.4783 29.6478 18.2348 29.8912 17.9348 29.8912H15.7609H12.5H10.3261C10.0261 29.8912 9.78265 29.6478 9.78265 29.3478C9.78265 27.5494 8.32013 26.0869 6.52176 26.0869C6.22177 26.0869 5.97831 25.8434 5.97831 25.5434V7.06522C5.97831 6.76523 6.22177 6.52177 6.52176 6.52177C8.32013 6.52177 9.78265 5.05926 9.78265 3.26089C9.78265 2.9609 10.0261 2.71744 10.3261 2.71744H12.5H15.7609H17.9348C18.2348 2.71744 18.4783 2.9609 18.4783 3.26089C18.4783 5.05926 19.9408 6.52177 21.7392 6.52177C22.0392 6.52177 22.2826 6.76523 22.2826 7.06522V25.5434Z" fill="#FFD95C"/>
<path d="M16.3043 24.1531V28.8042H17.425C17.6711 26.8406 19.232 25.2797 21.1956 25.0335V20.3536C20.1386 22.1906 18.3897 23.5748 16.3043 24.1531Z" fill="#FFD95C"/>
<path d="M17.425 3.80432H16.3043V8.4554C18.3897 9.03368 20.1386 10.4179 21.1956 12.2549V7.57499C19.232 7.32881 17.6711 5.76794 17.425 3.80432Z" fill="#FFD95C"/>
<path d="M15.2174 24.4563H13.0435V28.8041H15.2174V24.4563Z" fill="#FFD95C"/>
<path d="M7.06519 20.3536V25.0335C9.0288 25.2797 10.5896 26.8406 10.8359 28.8042H11.9565V24.1531C9.87114 23.5748 8.12223 22.1906 7.06519 20.3536Z" fill="#FFD95C"/>
</svg>
