<svg width="30" height="30" viewBox="0 0 30 30" fill="none" xmlns="http://www.w3.org/2000/svg">
<path d="M7.22187 16.3514L12.775 21.9076L10.5547 24.1295L12.7781 26.3529L10.5563 28.5748L6.66719 24.6857L2.22187 29.131L0 26.9092L4.44532 22.4623L0.556254 18.5748L2.77813 16.3529L5 18.5732L7.2203 16.3514H7.22187ZM0.857951 0L6.42992 0.00471405L24.9984 18.5748L27.2219 16.3529L29.4437 18.5748L25.5563 22.4639L30 26.9092L27.7781 29.131L23.3328 24.6857L19.4437 28.5748L17.2219 26.3529L19.4437 24.1295L0.862665 5.5484L0.857951 0ZM23.5748 0L29.142 0.00471405L29.1452 5.54054L22.7766 11.9076L17.2203 6.35292L23.5748 0Z" fill="#FFD95C"/>
</svg>
