<svg width="30" height="31" viewBox="0 0 30 31" fill="none" xmlns="http://www.w3.org/2000/svg">
<path d="M26.0213 25.8132C25.4904 25.6416 24.9888 25.4794 24.5653 25.3206C23.9937 25.1063 23.8601 25.0079 23.8305 24.969C23.8615 24.9405 23.9597 24.8969 24.027 24.8671C24.2605 24.7636 24.5801 24.6218 24.5981 24.2992C24.6197 23.9104 24.2528 23.1624 20.8327 21.1662C18.1828 19.6194 17.3421 18.1922 16.3686 16.5396C15.8234 15.614 15.2596 14.6568 14.3271 13.5659C14.0679 13.2626 13.7373 12.921 13.3546 12.5255C11.7696 10.8874 9.37445 8.41188 9.20632 5.44992C8.99377 1.69085 6.24168 0 4.35543 0L4.3089 0.000276388C3.09113 0.0175046 2.25699 0.814332 1.77166 1.47997C1.54622 1.78998 1.13117 2.18245 0.855245 2.39435C0.519064 2.65167 0.254561 2.95975 0.0694728 3.30966C-0.0160233 3.46941 -0.0228409 3.62465 0.0503099 3.74681C0.142992 3.9015 0.347612 3.98008 0.601889 3.95023C0.801257 3.9272 0.983765 3.91596 1.15982 3.91596C1.98807 3.91596 2.58755 4.16084 2.94142 4.64378C3.44574 5.3319 3.44362 6.49669 2.93525 8.10555C1.48992 12.68 1.07064 16.0619 1.65336 18.445C2.4032 21.513 3.43892 23.3825 7.01935 25.0868C7.36235 25.25 7.74284 25.3922 8.15337 25.5196C7.89421 26.3092 7.60824 27.0897 7.35175 27.5839C7.3325 27.6211 7.32107 27.665 7.30992 27.7074C7.30523 27.7252 7.29859 27.7505 7.29205 27.7699C7.23594 27.738 7.12825 27.6561 7.03114 27.5824C6.87185 27.4613 6.67359 27.3107 6.46335 27.1836C6.07299 26.9478 5.77007 26.8379 5.51018 26.8379C5.31081 26.8379 5.16451 26.9026 5.04759 26.9659C5.01848 26.9817 4.95012 27.0187 4.96726 27.094C4.98449 27.1696 5.05441 27.1731 5.12848 27.1767C5.31836 27.1859 5.81153 27.2102 6.28452 27.7127C6.07115 27.7065 5.60231 27.6134 4.85357 27.4279C4.76642 27.4064 4.68018 27.3962 4.59717 27.3962C3.97733 27.3962 3.67054 27.9865 3.55501 28.2083C3.5399 28.2373 3.52921 28.262 3.52285 28.2711L3.48121 28.3289L3.53179 28.4469H3.59038C3.61857 28.4469 3.63497 28.426 3.67874 28.4008C4.37026 28.0042 5.17814 27.9374 5.98087 28.2343C6.21497 28.3208 6.34846 28.4299 6.4218 28.5153C6.39996 28.5319 6.37933 28.5495 6.35906 28.5674C6.15158 28.5587 5.9863 28.5546 5.8494 28.5546C5.62967 28.5546 5.51018 28.5651 5.3718 28.5774C5.23858 28.5891 5.08758 28.6024 4.80787 28.6083C4.60758 28.6125 4.4189 28.6434 4.26228 28.6977C3.81472 28.8526 3.60254 29.1445 3.59269 29.1582L3.3092 29.5715L3.30091 29.5863C3.26775 29.6613 3.2648 29.7207 3.29225 29.7629C3.32708 29.8164 3.39599 29.8293 3.47375 29.7801C4.07222 29.4016 4.55866 29.2251 5.00475 29.2251C5.29211 29.2251 5.53238 29.2984 5.76473 29.3695C5.98971 29.4384 6.22243 29.509 6.48831 29.509C6.59168 29.509 6.69257 29.4974 6.79695 29.4763C6.94417 29.4462 7.08209 29.4113 7.21549 29.3798C7.55388 29.2997 7.84621 29.226 8.16535 29.226C8.31653 29.226 8.4691 29.2428 8.62572 29.2764C8.7512 29.3552 8.82361 29.4357 8.86083 29.4932C8.60213 29.4813 8.40442 29.4758 8.24476 29.4758C8.02503 29.4758 7.90554 29.4863 7.76716 29.4986C7.63394 29.5103 7.48294 29.5236 7.20324 29.5295C7.00295 29.5337 6.81427 29.5646 6.65765 29.6189C6.21008 29.7738 5.99791 30.0657 5.98805 30.0794L5.70457 30.4927L5.69628 30.5075C5.66311 30.5825 5.66016 30.6419 5.68762 30.6841C5.72244 30.7376 5.79136 30.7505 5.86911 30.7013C6.46759 30.3228 6.95403 30.1463 7.40012 30.1463C7.68747 30.1463 7.92774 30.2196 8.16009 30.2907C8.38507 30.3596 8.61779 30.4302 8.88368 30.4302C8.98705 30.4302 9.08793 30.4187 9.19231 30.3975C9.33954 30.3674 9.47745 30.3325 9.61086 30.301C9.94925 30.2209 10.2416 30.1472 10.5607 30.1472C11.1038 30.1472 11.6629 30.3546 12.3737 30.8401L12.4054 30.8419H12.4339L12.4928 30.8596L12.518 30.8261C12.5475 30.7656 12.5475 30.7656 12.3225 30.478C12.0626 30.1457 11.3721 29.263 11.4164 29.0247C11.537 28.3776 11.8422 27.3166 12.1532 26.3106C12.7583 26.3944 13.3871 26.4751 14.0372 26.558C15.5287 26.7482 17.2193 26.964 18.9637 27.2683C19.7731 27.4096 20.626 27.5676 21.4509 27.7204C24.1111 28.2133 26.862 28.7228 28.4612 28.7228C29.198 28.7228 29.658 28.6159 29.8673 28.3959C29.9619 28.2964 30.0063 28.1749 29.9993 28.0349C29.9516 27.0837 27.8635 26.4086 26.0213 25.8132ZM9.70547 28.6288C9.70078 28.6465 9.69414 28.6719 9.6876 28.6913C9.63149 28.6593 9.52379 28.5775 9.42669 28.5037C9.31319 28.4175 9.17932 28.3163 9.03606 28.2192C9.02141 28.1726 9.01552 28.1334 9.02095 28.104C9.12174 27.5633 9.35142 26.7334 9.60561 25.8883C9.94437 25.9588 10.2981 26.0238 10.6635 26.0853C10.3761 26.9897 10.0422 27.9368 9.74721 28.5053C9.72795 28.5425 9.71653 28.5864 9.70547 28.6288Z" fill="#FFD95C"/>
</svg>
