<svg width="30" height="29" viewBox="0 0 30 29" fill="none" xmlns="http://www.w3.org/2000/svg">
<path d="M10.1448 0.000168737C10.0998 0.00122654 10.0539 0.00368531 10.0116 0.0134857C9.55926 0.0852621 9.32981 0.548682 8.99947 0.985669C8.62596 6.09019 8.09839 10.764 7.72431 15.8747C9.28974 15.7575 11.4411 15.7815 13.6506 15.7515C16.0544 15.7189 18.3969 15.5544 19.5437 15.1389C21.9072 14.2826 23.7306 12.1145 25.2536 8.89299C20.5721 6.04278 15.5329 2.65514 11.2102 0.343092C10.8345 0.186466 10.4593 -0.00651114 10.1448 0.000168737ZM8.10719 2.0877C5.30753 7.38117 2.8312 11.713 0.00676736 17.1C-0.0480648 18.5473 0.237499 19.3804 0.602729 19.91C0.968812 20.4408 1.30057 20.5781 1.79132 20.5459C2.49914 20.3112 3.38864 19.6808 4.30835 18.8845C4.65707 18.5738 6.89047 16.6361 7.08174 16.2077C7.4322 11.418 7.7542 6.90518 8.10719 2.0877ZM16.1011 2.34073C19.5088 4.45507 22.7666 6.58143 25.733 8.33698C26.6196 8.86168 28.3008 9.48394 29.5718 9.86185C28.3621 8.63678 26.9814 7.58382 25.4434 6.82543L16.1011 2.34073ZM13.9303 4.31507C14.2744 4.30612 14.6155 4.40281 14.9524 4.6014C15.6274 4.99378 16.2542 5.78223 16.8335 6.9686C17.3745 8.07649 17.5784 9.10182 17.4462 10.045C17.3151 10.9833 16.8653 11.6893 16.0977 12.1625C15.8916 12.2895 15.6731 12.3954 15.4385 12.4788L14.6761 12.6719L14.2533 11.8062C14.5146 11.7921 14.765 11.7505 15.0057 11.6797C15.2464 11.6089 15.4682 11.5088 15.6716 11.3834C16.214 11.049 16.5244 10.5845 16.6038 9.98836C16.6844 9.38744 16.5369 8.64603 16.1577 7.76099C16.1322 8.12791 16.0322 8.45665 15.8614 8.74983C15.6905 9.043 15.4584 9.27842 15.1655 9.45899C14.558 9.83352 13.9731 9.92003 13.4109 9.71535C12.8499 9.50587 12.3894 9.03127 12.0292 8.29369C11.6767 7.57185 11.5771 6.87981 11.7329 6.21615C11.8887 5.55251 12.2753 5.03255 12.8882 4.65467C13.2394 4.43815 13.5862 4.32404 13.9303 4.31507ZM13.8537 5.21068C13.6551 5.21806 13.4562 5.28276 13.2544 5.40711C12.8856 5.63451 12.6648 5.96384 12.5919 6.39261C12.5202 6.81659 12.6082 7.279 12.8549 7.7843C13.1032 8.29275 13.4071 8.62667 13.7638 8.78644L14.8559 8.68324C15.2247 8.45585 15.4434 8.13171 15.5151 7.70772C15.5895 7.28211 15.5037 6.8145 15.2554 6.30605C15.0087 5.80076 14.706 5.4687 14.3465 5.31055C14.2121 5.24947 14.0761 5.21687 13.9403 5.21068C13.912 5.2094 13.8821 5.20962 13.8537 5.21068ZM6.579 7.87752C6.64987 7.87358 6.7077 7.89418 6.75213 7.93745C6.89522 8.0727 6.88569 8.42723 6.71883 9.00286C6.60259 9.40388 6.4375 9.79682 6.22941 10.1815C6.02225 10.5629 5.78638 10.907 5.52025 11.2102C5.75153 11.0929 5.89617 11.1314 5.94974 11.3268C6.0051 11.5207 5.96487 11.8499 5.82988 12.3156C5.62272 13.0303 5.32393 13.6972 4.93761 14.3166C4.55127 14.936 4.10857 15.4546 3.60585 15.8747C3.43707 16.0158 3.2715 16.1324 3.10977 16.221C2.94889 16.3114 2.78929 16.3747 2.63366 16.4141L2.91 15.4686C3.01489 15.501 3.14343 15.4845 3.29954 15.4153C3.45565 15.3461 3.63321 15.2293 3.82892 15.0657C4.17005 14.7806 4.46315 14.4413 4.71121 14.0502C4.96105 13.6576 5.15314 13.2309 5.28719 12.7684C5.41092 12.3415 5.42475 12.0791 5.32715 11.9793C5.23227 11.8749 5.03742 11.9448 4.74117 12.1924L4.27173 12.5853L4.50478 11.7796L4.9942 11.3701C5.26172 11.1465 5.49623 10.8804 5.69338 10.571C5.89146 10.2584 6.04118 9.92107 6.14618 9.55886C6.25397 9.18697 6.26285 8.96389 6.17281 8.88966C6.0855 8.81073 5.90635 8.88464 5.63345 9.11274C5.48443 9.23729 5.31482 9.39807 5.12738 9.59882C4.93994 9.79962 4.72844 10.0473 4.48814 10.3413L4.74117 9.46898C4.97764 9.19292 5.19253 8.95496 5.38708 8.75316C5.58341 8.54984 5.75998 8.38065 5.91978 8.24709C6.20368 8.0098 6.42308 7.88623 6.579 7.87752ZM25.9994 9.26921C24.4938 12.4513 22.576 14.8736 20.1197 15.8814L20.4926 28.0037C21.1346 27.6453 21.2559 27.4306 21.538 26.7519L29.9147 11.38C30.0316 11.0807 30.0423 10.8868 29.8581 10.7608C28.4768 10.3743 27.2901 9.90221 25.9994 9.26921ZM19.6768 11.39L19.9698 11.986L15.1122 14.3732L14.8159 13.7772L19.6768 11.39ZM26.8018 13.6274L26.4688 14.4997C26.0989 14.9941 25.5978 15.6595 24.9673 16.494C24.3336 17.3327 23.9296 17.8683 23.7587 18.1054C23.4353 18.552 23.1888 18.9186 23.0196 19.2041C22.8471 19.4938 22.7129 19.7633 22.6167 20.0132C22.4599 20.4204 22.41 20.7224 22.4669 20.9154C22.5219 21.1092 22.6747 21.1535 22.923 21.0519C23.0991 20.98 23.3057 20.849 23.5456 20.6558C23.7837 20.4633 24.0606 20.2069 24.3713 19.8867L23.9651 20.9321C23.6744 21.1922 23.4154 21.4055 23.186 21.5713C22.9566 21.7372 22.7598 21.8543 22.5967 21.9209C22.1668 22.0967 21.9006 22.0369 21.7977 21.7445C21.6948 21.452 21.7717 20.9734 22.0274 20.3095C22.1486 19.9946 22.296 19.6845 22.4702 19.3739C22.6413 19.0675 22.8864 18.6875 23.2027 18.2353C23.2872 18.1171 23.5436 17.7704 23.9751 17.1932L25.793 14.776L23.8319 15.5751L24.1682 14.7028L26.8018 13.6274ZM19.4571 16.1211C18.102 16.5276 15.9239 16.6131 13.6573 16.6438C11.7338 16.6621 9.10023 16.5107 7.54785 16.7903C6.64138 17.6637 5.66551 18.5976 4.71121 19.4239C3.8615 20.1356 2.9913 20.8748 1.91784 21.2151C1.78581 21.2257 1.76436 21.2108 1.63151 21.1951C2.02945 21.5533 2.44788 21.7704 2.90001 22.0275L18.1819 28.1469C18.2622 28.1625 19.1087 28.4761 19.8 28.1502L19.4571 16.1211ZM12.1158 19.5005C12.1841 19.4982 12.2517 19.4984 12.3189 19.5005C12.3956 19.5028 12.47 19.5092 12.5453 19.5171C13.1478 19.5805 13.6271 19.8095 13.9836 20.2063C14.2385 20.49 14.3432 20.7786 14.2932 21.0719C14.2463 21.364 14.0518 21.6303 13.7139 21.871C14.2362 21.7542 14.7228 21.7548 15.1722 21.8677C15.6247 21.9792 15.9927 22.1933 16.2775 22.5102C16.7097 22.9912 16.8335 23.4465 16.6504 23.8786C16.4705 24.3095 15.9978 24.6889 15.2288 25.0139C14.4597 25.339 13.7531 25.4589 13.1079 25.3768C12.4659 25.2934 11.9287 25.0122 11.4965 24.5312C11.2117 24.2142 11.0988 23.893 11.1569 23.5656C11.215 23.2383 11.4359 22.9409 11.8228 22.6734V22.67C11.3543 22.7702 10.9189 22.7713 10.5143 22.67C10.1129 22.5675 9.78379 22.3745 9.52884 22.0907C9.17233 21.694 9.08754 21.2965 9.27581 20.8988C9.4672 20.4998 9.90971 20.1555 10.6009 19.8634C11.1325 19.6387 11.6378 19.5164 12.1158 19.5005ZM11.9493 20.193C11.6728 20.1981 11.3806 20.2678 11.077 20.3961C10.6691 20.5685 10.4191 20.7719 10.3212 21.012C10.2265 21.2508 10.2933 21.5007 10.5243 21.7578C10.7554 22.0149 11.0463 22.1679 11.4 22.2172C11.7567 22.2653 12.1407 22.2032 12.5486 22.0308C12.9534 21.8597 13.2032 21.655 13.3011 21.4149C13.402 21.1734 13.339 20.9229 13.1079 20.6657C12.8769 20.4086 12.5789 20.2563 12.219 20.2096C12.1298 20.1976 12.0415 20.1913 11.9493 20.193ZM14.0036 22.3438C13.689 22.3438 13.3633 22.4171 13.0247 22.5602C12.5764 22.7497 12.2974 22.9828 12.1924 23.2627C12.0904 23.5413 12.1732 23.8291 12.4421 24.1283C12.711 24.4276 13.0522 24.6116 13.4609 24.6743C13.8726 24.7358 14.301 24.6707 14.7493 24.4812C15.1977 24.2917 15.4766 24.0553 15.5817 23.7754C15.6848 23.4933 15.6022 23.2035 15.3353 22.9064C15.0664 22.6072 14.725 22.4285 14.3132 22.3671C14.211 22.3514 14.1084 22.3436 14.0036 22.3438Z" fill="#FFD95C"/>
</svg>
