<svg width="32" height="32" viewBox="0 0 32 32" fill="none" xmlns="http://www.w3.org/2000/svg">
<path fill-rule="evenodd" clip-rule="evenodd" d="M32 10.0695C32 15.6307 27.4733 20.139 21.8891 20.139C20.8702 20.139 18.5502 19.9048 17.4216 18.9682L16.0107 20.3733C15.1813 21.1994 15.4053 21.4426 15.7742 21.8432C15.9282 22.0104 16.1075 22.205 16.2459 22.4808C16.2459 22.4808 17.4216 24.12 16.2459 25.7592C15.5405 26.6958 13.5653 28.0072 11.3081 25.7592L10.8378 26.2275C10.8378 26.2275 12.2486 27.8667 11.0729 29.5059C10.3675 30.4427 8.48645 31.3794 6.8405 29.7402L5.19456 31.3794C4.0659 32.5034 2.68648 31.8477 2.13786 31.3794L0.727056 29.9742C-0.589712 28.6629 0.1784 27.2422 0.727056 26.6958L12.9541 14.5189C12.9541 14.5189 11.7784 12.6454 11.7784 10.0695C11.7784 4.50827 16.3051 0 21.8891 0C27.4733 0 32 4.50827 32 10.0695ZM21.8896 13.5822C23.8374 13.5822 25.4165 12.0096 25.4165 10.0696C25.4165 8.12968 23.8374 6.55702 21.8896 6.55702C19.9416 6.55702 18.3626 8.12968 18.3626 10.0696C18.3626 12.0096 19.9416 13.5822 21.8896 13.5822Z" fill="#FFD95C"/>
</svg>
